<svg xmlns="http://www.w3.org/2000/svg" viewBox="0 0 1500 1500" id="bulbinbrain"><path fill="#0d5c66" d="M272.953 3.14656L293.274 3.1357L313.932 4.77256C349.305 7.6055 383.974 14.4758 414.893 32.8819C456.432 57.6098 489.563 103.323 503.244 149.5C510.242 173.124 511.479 193.881 509.222 218.272C504.295 271.516 480.818 308.539 445.527 346.539L408.915 384.833C396.619 398.595 382.587 416.144 384.532 435.864C385.017 440.781 386.297 445.655 387.237 450.5C391.779 473.896 388.536 500.064 361.623 505.686C357.079 506.635 352.801 506.667 348.206 506.931L308.454 507.295C306.168 507.241 303.929 506.821 301.637 506.782L236.29 506.738L187.504 506.775C142.13 506.603 160.956 466.177 136.75 459.251C134.259 458.538 131.449 458.742 128.871 458.751C111.936 458.807 87.9285 465.288 74.25 453.028C54.341 435.184 60.1099 405.351 58.5591 382.25C57.7389 370.032 39.7556 371.192 31 369.673C23.5464 368.38 15.0661 365.816 9.31737 360.666C1.4334 353.603 2.9411 351.347 5.5953 341.997C11.1133 322.558 21.3713 304.649 30.9661 286.993L50.8403 248.214C56.1938 236.417 59.165 229.483 55.7513 216.819L52.6753 205.699C46.4374 181.506 49.613 163.128 58.3133 140.2C68.5889 113.119 81.701 93.7918 101.524 72.2524C136.177 34.5995 203.992 9.10742 253.125 4.36816L272.953 3.14656ZM408.436 184.808C398.043 190.922 387.739 193.04 377.455 201.379C373.22 205.325 371.857 210.733 369.574 215.921L360.125 235.703C348.734 256.973 329.422 268.201 327.607 294.248C334.41 287.497 350.393 273.86 358.541 270.994C355.777 278.866 356.532 276.881 349.331 282.491L338.133 291.248C335.115 293.628 332.366 296.909 328.642 298.166C328.158 298.33 327.879 298.579 327.503 298.913L327.723 317.483C328.899 315.29 339.282 309.032 341.418 308.482L341.654 308.432C336.689 316.543 334.381 318.976 328.513 325.701C326.862 327.593 325.495 329.697 323.769 331.533C321.756 333.674 314.364 338.501 315.59 342.109L315.698 342.319C316.662 342.429 317.798 341.555 318.605 341.021L325.821 336.125C329.833 333.591 331.737 331.377 335.364 333.987C334.838 339.4 322.547 346.75 318.586 350.487C315.877 353.043 314.064 356.078 311.537 358.717C308.083 362.324 297.005 372.096 292 371.217C285.249 370.033 282.924 374.62 278.625 378.652C276.145 380.977 273.27 382.546 270.252 384.061L270.43 383.799C272.535 380.661 272.847 376.765 272.702 373.102C272.022 372.34 271.343 371.83 270.5 371.258L270.12 370.997C268.017 369.597 265.681 370.244 263.457 368.8C260.99 367.196 258.61 365.059 256.48 363.022C254.158 360.801 254.541 359.839 251.449 361.381L250.765 360.867C251.579 360.497 252.283 359.965 253.013 359.455L249.093 351.766C248.361 350.185 247.837 348.041 246.75 346.712L246.089 346.726L244.808 348.293C244.286 348.972 243.591 349.43 242.875 349.877L242.134 350.307C241.183 350.784 240.107 351.515 239.25 352.131L236.596 353.883C236.138 354.189 236.301 354.055 235.962 354.542C233.337 355.599 230.739 357.423 228.219 358.766L215.071 365.64C209.87 368.479 204.734 371.62 199.217 373.815L176.35 382.134C175.857 381.743 174.597 381.105 174.417 380.5L174.134 379.04L192.029 362.19C195.087 359.77 197.736 356.428 200.398 353.587C208.174 345.289 216.554 337.611 225.824 331.004C229.272 328.546 233 326.317 236.162 323.502C234.758 321.363 233.875 318.6 232.375 316.654L231.207 316.5C232.483 311.119 233.238 306.769 233.035 301.145L182.735 339.336C182.314 339.4 181.885 339.427 181.504 339.63L181 339.877C180.657 340.079 180.46 340.332 180.062 340.501L179.141 340.626C180.034 339.936 180.804 339.258 181.353 338.261L181.457 338.065L187.069 333.019L229.878 295.27C231.712 293.421 232.01 291.771 231.994 289.262C232.291 287.827 232.531 285.831 231.719 284.562C236.353 276.193 218.779 259.092 213.633 254.429L202.971 244.416L202.735 244.379C202.149 244.282 201.757 244.246 201.312 243.812L200.488 244.121C198.974 243.515 199.367 244.611 199.688 245.562L199.875 246.373C200.273 246.241 200.428 246.128 200.75 245.875L200.875 246.5C201.847 247.083 201.798 247.822 202.183 248.835L202.781 249.718L203.443 249.565C201.383 252.122 196.975 255.706 193.946 257.222L193.4 257.766L173.051 272.908C171.164 274.208 151.591 289.234 150.967 290.581L102.315 329.903C92.1587 338.12 73.3568 356.304 60.3681 358.79L71.8583 360.972C76.7917 359.876 81.0457 357.115 85.121 354.219L86.6875 355.626L87.375 354.885C87.7886 354.896 87.8459 354.804 88.1507 355.111C88.7832 354.873 89.6426 353.975 90.1995 353.535C90.8425 354.095 91.0983 354.763 91.5378 355.5L92.4385 356.975C93.3259 358.083 94.2676 359.156 95.1468 360.266L95.4407 360.878L125.086 343.068C129.761 340.817 134.679 341.46 129.333 345.299L123.738 349.054C116.07 354.067 108.509 359.252 101.43 365.079L96.1495 369.435C95.4262 370.022 94.8437 370.714 93.9148 370.863L93.9602 371.535C91.776 372.444 86.933 378.218 85.7373 378.348C85.238 378.851 82.9501 381.486 82.486 381.575C80.701 383.835 81.109 384.115 81.3529 387.073L85.5331 386.657C83.5938 388.58 80.1164 390.366 78.7828 392.625L79.125 393.301C78.2025 394.705 78.6341 396.667 78.7553 398.267C86.3723 393.652 92.3043 385.586 99.2724 379.913C108.873 374.769 106.349 374.203 119.16 373.535C118.71 374.074 117.015 374.762 117.018 374.806C112.542 376.685 108.287 379.412 104.501 382.444L105.627 382.375C105.703 385.238 105.964 388.728 109.023 390.227L110.712 391.413C111.029 391.64 111.197 391.705 111.561 391.808L112.501 392.066C112.81 392.146 113.078 392.277 113.375 392.385L114.964 392.821C115.896 393.061 116.803 392.971 117.75 393.271L118.119 393.362C118.823 393.542 119.292 393.772 119.875 394.206L119.627 394.366C119.248 394.626 119.384 394.519 119.075 394.931L133.24 389.158C140.433 386.733 146.741 385.298 154.277 385.199C153.168 386.107 150.708 386.78 149.325 387.366L139.286 392.78C137.47 393.824 135.387 394.852 133.754 396.142C137.211 395.348 134.765 396.602 135.957 399.335L136.459 400.449C137.007 401.397 137.004 402.452 137.75 403.414L141.127 404.875L140.089 406.197C139.784 406.504 139.682 406.82 139.537 407.215L141.654 406.824C133.034 415.257 123.993 423.737 113.954 430.473L100.021 439.36C97.3393 441.01 94.5271 442.897 91.6302 444.121L103.188 443.499C115.408 443.032 127.944 442.845 139.75 439.291C150.128 436.166 159.255 428.879 168.573 423.497L207.106 401.778L239.604 384.051C246.301 380.728 252.996 377.514 260.096 375.125C257.7 378.02 254.68 379.864 251.516 381.814L198.751 413.704L172.625 428.247L156.808 438.685C154.292 440.425 151.468 441.942 149.112 443.875L149.528 444.191C153.643 444.502 153.774 447.21 158.57 445.757C164.193 444.053 169.34 441.288 174.5 438.536L220.104 413.461C217.764 416.284 215.061 418.187 212.208 420.431L189.491 436.599C179.466 443.543 174.077 446.756 163.337 452.403C164.178 453.544 165.025 454.438 166.186 455.252C169.791 453.214 173.048 450.85 176.538 448.663L194.662 437.122C204.664 430.277 211.786 425.262 222.625 419.904L255.875 405.933L217.29 428.93L199.43 441.375C189.125 448.225 178.042 454.419 168.626 462.49C170.467 466.01 170.378 470.521 171.007 474.42C179.773 466.556 208.105 448.226 219.997 446C218.266 447.932 216.262 449.255 214.214 450.81L195.02 464.183C191.322 466.843 176.056 479.263 173.685 482.94C176.481 491.252 174.018 493.745 180.375 487.111C182.427 484.969 184.818 482.923 187.221 481.194L234.396 449.643L256.2 436.182C263.895 431.317 284.803 417.393 293.496 415.552C289.632 421.147 282.564 425.169 276.957 428.875L234.875 455.72L212.353 472.039C202.922 478.736 194.266 483.484 187.353 492.977C189.026 492.846 190.618 492.717 192.253 492.325L192.576 492.255C195.093 491.666 197.727 488.412 199.499 486.648L205.584 480.815C206.871 479.664 208.381 478.716 209.766 477.68L206.451 483.541C213.479 481.39 219.479 476.001 225.616 472.103L247.125 459.25C258.515 452.346 277.198 439.519 290.142 436.479C288.015 438.554 285.587 439.975 283.147 441.637L230.688 477.193L208.947 493.038C222.687 492.782 233.802 487.585 245.444 480.992L303.013 445.438C307.374 442.39 307.716 442.181 312.625 439.998C321.033 436.26 328.321 429.968 335.887 424.848C349.506 415.63 363.69 406.919 375.435 395.309C373.039 396.615 370.904 398.569 368.624 400.089L348.398 412.545C345.958 413.885 343.404 415.428 340.794 416.378C339.018 416.201 336.73 417.483 335.25 418.377L334.625 418.627C334.039 418.972 333.489 419.219 332.875 419.5L332.5 419.689C331.595 419.969 329.797 421.3 329.374 419.812L331.375 418.75C331.672 418.556 331.831 418.322 332.171 418.153L333.25 417.623C334.064 417.069 333.222 417.511 333.944 417.148L335 416.623C335.604 416.228 336.108 415.743 336.75 415.375L338.396 413.81L367.687 394.984L380.71 385.094L424.416 346.114C425.497 344.992 427.592 343.29 428.169 341.863L407.707 359.108C397.91 366.877 387.657 373.85 377.25 380.766C372.352 384.021 367.317 387.856 362.093 390.554L361.857 390.673L361.699 390.341C360.883 390.518 360.523 390.949 359.812 391.251L359.5 391.377C359.249 391.525 359.097 391.744 358.816 391.884L357.312 392.751C356.887 392.952 356.664 392.854 356.249 392.751L356.122 392.375C357.087 391.176 358.341 390.096 359.433 389.004L358.998 388.707C367.402 378.686 381.237 370.175 392 363.001L427.549 337.61L440.544 326.312C455.164 313.001 465.532 298.656 474.67 280.943L460.086 291.587L400.638 330.716C381.292 343.08 356.931 360.378 335.69 369.057L335.494 369.136C334.495 369.893 333.173 370.402 332.052 370.966L310.303 381.932C306.346 383.864 302.499 385.755 298.192 386.772C300.561 384.854 303.042 383.434 305.679 381.923L334.074 366.831C334.103 366.757 334.206 366.742 334.274 366.702L362.091 349.05L409.47 316.857C416.889 312.728 423.906 307.84 431.109 303.352L454.641 288.651C459.3 285.425 463.685 281.797 468.051 278.192L469.835 276.785C468.837 275.519 468.691 274.676 468.332 273.228L468.195 272.661C468.006 271.688 468.237 271.128 468.791 270.342C467.794 269.293 466.867 266.972 466.022 265.66C464.389 264.512 462.975 260.16 460.175 257.927L459.375 257.377C458.927 256.956 458.632 256.184 458.624 255.586L458.994 254.766C457.108 254.237 455.837 252.616 455.243 250.787L455.556 250.421C456.697 249.137 458.611 248.266 459.966 247.155L473.879 235.338C475.927 233.657 477.905 231.531 480.422 230.612C479.802 238.483 479.187 234.774 476.089 240.238L480.75 238.007C489.013 234.306 490.504 232.99 489.988 223.659L482.713 226.184L491.037 215.297C491.426 214.727 492.595 199.501 492.31 198.423L389.746 264.348C388.813 264.236 388.784 264.346 388 264.875L387.625 264.877C387.282 265.445 386.675 265.442 386.23 265.884L386 266.125C385.376 266.305 385.052 266.67 384.5 266.875L383.75 267.127C382.577 267.891 384.171 267.079 383.137 267.598L381.5 268.377C380.89 268.783 380.753 268.836 380 268.877L381.5 267.75C382.051 267.387 382.589 266.894 383.145 266.586L384.812 265.562C385.269 265.307 385.51 265.068 385.942 264.793L387.027 263.483L491.296 185.111C490.942 184.251 490.458 183.301 490.307 182.382L489.829 179.402C488.022 179.553 486.025 180.023 484.235 180.375C481.027 181.006 482.389 180.011 482.875 177.965C479.816 180.658 474.577 182.631 470.928 185.207L439.573 208.479C437.225 210.131 429.994 215.401 426.943 212.125C428.406 210.81 430.702 209.893 432.384 208.8L487.27 166.636C486.862 163.775 485.881 161.284 485.869 158.264C485.855 154.509 486.174 150.818 485.965 147.049C483.379 147.995 480.893 149.416 478.49 150.758L466.536 157.971C460.809 161.614 455.334 165.077 450.139 169.425L442.439 175.125L479.178 141.856L474.906 132.949C465.853 142.167 451.137 150.667 440.798 159.986L417.38 182.819C409.499 191.001 401.869 199.279 393.421 206.896C405.715 210.221 420.225 208.306 430.457 217.323C426.127 220.824 420.866 222.792 416.075 225.577C403.566 232.848 392.541 241.382 378.172 244.553C379.762 242.478 382.121 240.921 384.263 239.468L415.312 218.827C406.093 218.006 397.743 217.305 389.044 213.898C384.21 212.006 387.254 212.821 383.826 213C390.334 204.121 405.908 194.606 410.277 184.375L408.436 184.808ZM103.499 122.94L103.547 123.319C104.537 123.343 106.303 123.147 107.155 123.578L105.3 125.165L105.592 125.076C106.719 124.725 107.616 124.072 108.693 123.649C107.748 125.016 106.789 127.327 106.472 128.972L106.388 129.212C106.104 130.193 106.55 132.092 106.833 133.125L106.875 133.917C107.32 134.343 107.527 134.509 107.797 135.075L109.416 135.308C108.313 136.601 106.828 137.369 105.5 138.396L104.877 138.875C104.527 139.109 104.228 139.268 103.899 139.546L101.627 141.375C100.495 142.155 99.0352 143.229 98.0552 144.215L97.5012 144.751C96.8307 145.149 96.4346 145.556 95.8775 146.125L106.749 138.716C111.502 135.568 126.551 129.598 131.875 129.115C133.068 129.871 133.489 130.505 133.962 131.844C136.219 130.306 138.442 128.406 140.877 127.186C138.828 131.256 135.702 134.805 132.671 138.168L132.687 138.176C127.425 143.038 122.197 147.795 116.533 152.196L97.0084 166.284C93.6246 168.815 74.2344 184.479 72.2617 187.908C72.6809 191.171 72.8049 195.459 75.0001 198.009C76.7771 196.714 78.2342 194.95 79.7185 193.339L79.6861 193.555C79.5261 194.463 79.1894 194.86 78.5453 195.493L78.5122 195.677C79.1134 195.933 79.6144 195.897 80.25 195.875L80.9004 195.519C81.279 195.652 81.1235 195.616 81.514 195.638C84.913 193.855 87.9165 191.376 91.1798 189.362C101.703 182.869 113.819 176.012 125.753 172.353L125.997 172.938C128.162 172.228 132.594 170.591 134.718 171.523C135.253 170.589 135.879 169.957 136.254 168.876C144.74 165.082 154.435 165.488 163.471 163.868C163.459 164.088 150.31 177.358 148.634 178.866C134.96 191.17 119.13 193.202 105.76 210.106C104.42 211.672 102.818 213.267 102.096 215.231L102.24 215.497L103.234 215.95L115.236 210.628L113.705 212.151C112.056 213.018 110.535 214.446 109.01 215.543L99.412 222.671C98.0706 223.687 96.4172 224.701 95.2549 225.905C90.8179 228.844 86.4883 232.336 81.1228 233.387C74.7717 241.458 73.6449 244.699 70.1042 253.977C74.0265 250.282 80.1145 244.278 85.2937 242.341C82.6763 246.211 79.848 250.003 76.7361 253.487C74.7186 255.746 72.185 257.916 70.4417 260.359C66.9426 265.262 64.5611 270.985 61.0185 275.943C66.2595 272.003 71.4403 268.081 77.1043 264.742L89.9937 257.985C92.6247 256.595 95.2116 254.818 97.8987 253.579L100.188 252.749C101.626 251.971 102.987 250.977 104.438 250.249L105.324 249.607C106.015 249.054 105.208 249.658 105.999 249.249L108.876 247.562L106.501 249.751C105.563 250.452 104.378 251.291 103.375 251.877L102.251 252.562C100.589 253.801 98.6761 255.017 96.9001 256.111L96.9701 256.522L94.4079 258.394C82.6365 265.484 61.9284 279.587 54.5637 289.638C57.3121 287.979 59.5867 285.545 62.3302 283.803C72.6655 277.241 83.571 271.451 94.6659 266.278L94.0625 266.983C93.2812 267.289 92.5657 267.905 91.8048 268.302L83.9011 272.896C73.2097 279.081 66.3161 285.342 56.4265 291.967L57.145 292.645C57.3499 293.57 58.4976 295.427 58.6225 296C58.7695 296.674 58.6794 298.307 59.1225 298.75L59.4988 299.001C59.6036 299.487 59.8753 300.31 59.4988 300.736L58.4401 301.919C59.5493 301.345 60.7398 300.561 61.9099 300.169L55.199 306.493L46.4395 312.689C34.727 320.836 35.7468 325.358 28.476 336.619C36.3189 330.476 44.1367 324.696 52.5778 319.387C53.3563 318.898 59.102 315.709 59.193 315.424L108.73 287.223C118.138 282.406 128.074 278.755 137.979 275.117C141.608 272.908 145.785 271.617 149.044 268.718C151.335 267.622 153.67 265.633 155.724 264.136L161.569 259.905L160.125 259.877C159.004 260.174 153.416 259.638 152.623 259.375L154.427 259.182C155.033 259.023 155.205 259.097 155.606 258.586L154.75 258.377L155.49 258.208C156.792 257.135 158.827 256.52 158.341 254.46L156.75 253.627C155.212 252.723 154.823 254.078 155.884 251.407L156 251.125C155.641 251.092 155.801 251.124 155.413 251.003L155.122 250.909L150.23 254.346L145.485 257.161L140.187 259.96L135.335 262.074C136.022 261.215 137.074 260.516 137.914 259.802L142.713 255.615C156.668 243.414 172.127 233.107 185.914 220.715C173.949 186.816 178.405 147.912 204.467 121.605C225.638 100.278 273.401 80.2608 303.309 91.4206L302.961 90.2625L302.515 89.3307C303.033 89.0503 312.242 77.4044 313.089 76.2271L326.181 56.56C329.575 51.7122 348.27 26.5722 353.75 25.2449C354.799 25.5749 355.665 25.7068 356.76 25.7417L357.108 25.75L356.803 25.3077C354.282 24.7107 351.573 24.5463 349 24.2446L334.931 22.9195C332.259 22.7319 329.564 22.731 326.902 22.323C321.891 28.7116 312.786 30.9911 305.784 34.5094L297.971 38.7703C296.831 39.3838 295.411 40.2639 294.174 40.5918L294.025 40.6C292.688 41.4207 291.381 42.3753 289.805 42.6303L288.8 41.67L289.134 41.5051C290.59 40.8419 291.564 39.9215 292.738 38.8488C297.016 34.2573 311.139 25.0883 317.477 22.4838L319.565 21.422C317.713 21.169 315.866 20.9278 313.997 20.8421L304.375 20.5289C298.732 20.5072 293.419 19.3107 287.633 20.1825L287.119 19.3901C286.439 19.3838 285.944 19.2503 285.363 19.576C277.09 18.5662 269.215 19.0132 260.991 19.552L230.113 22.6632C226.696 23.0966 223.313 22.5629 219.891 23.2407C210.269 25.1458 188.165 32.6989 179.962 39.125C176.3 41.9934 172.951 45.1511 169.158 47.8877C154.839 58.2203 139.305 67.2028 125.685 78.4871C102.057 98.0633 94.5839 110.479 83.0452 137.466L104.196 121C104.105 121.742 103.828 122.284 103.499 122.94ZM302.515 89.3307L302.961 90.2625L303.309 91.4206C340.814 103.121 365.137 124.806 373.322 163.228L375.024 173.204C375.597 176.323 375.483 179.732 375.487 182.902L375.315 201C375.811 201.111 375.95 200.862 376.404 200.603C377.127 198.999 387.016 193.517 388.693 192.629L407.225 183.798C409.74 182.369 411.748 180.322 413.785 178.306L440.082 151.959C446.344 145.969 453.102 140.513 459.77 134.987L471.744 124.991L467.682 117.076C462.474 121.121 433.866 141.488 427.625 142.442L428.021 141.271C425.118 139.391 427.016 136.046 427.41 133.429L427.827 131C427.235 130.14 426.233 130.36 425.374 129.958L419.475 127.784C418.781 127.517 418.074 127.372 417.375 127.128L417.376 126.678C417.91 126.417 418.247 126.253 418.593 125.755L418.847 125.376L414.369 127.218C417.381 123.422 421.855 120.344 425.671 117.354C434.747 110.242 444.537 103.466 452.083 94.6864C446.383 84.3082 434.833 73.6667 426.206 65.7686L412.835 75.3293C406.47 79.5196 399.819 83.3782 392.161 84.4446C393.481 82.8616 395.662 81.8947 397.353 80.7554L408.374 73.1455C413.126 69.7206 417.644 65.989 422.055 62.1398C415.3 55.6665 406.944 49.5367 399.067 44.553L385.39 36.7941C376.228 31.8809 367.026 27.5543 356.803 25.3077L357.108 25.75L356.76 25.7417C355.665 25.7068 354.799 25.5749 353.75 25.2449C348.27 26.5722 329.575 51.7122 326.181 56.56L313.089 76.2271C312.242 77.4044 303.033 89.0503 302.515 89.3307ZM313.865 112.348L313.121 113.507C311.001 116.689 307.236 118.618 304.914 121.572L305.345 121.934L295.416 129.684C281.323 139.645 266.146 147.755 251.16 156.247L234.861 165.535C223.311 172.809 212.648 181.598 202.511 190.698L198.928 193.815C198.902 194.972 199.05 196.482 199.534 197.544L199.569 197.763L200.051 201.137C200.303 203.386 200.901 209.587 202.625 210.993C207.466 206.286 209.109 204.313 214.922 199.84L236.652 184.679C238.818 183.283 241.164 181.329 243.46 180.239C241.265 182.868 238.661 185.342 236.088 187.599L210.946 208.182C208.509 210.435 206.6 212.734 203.445 213.958C204.073 215.758 205.845 221.285 207.621 222.287L208.243 221.989C213.964 216.017 220.998 210.936 227.361 205.646C230.084 203.382 232.583 200.698 235.443 198.645C233.57 202.518 230.808 205.066 227.834 208.129L216.77 219.157C214.553 221.271 212.543 223.687 209.964 225.374C211.069 229.356 215.652 230.676 217.799 233.645C220.941 235.64 226.27 228.504 227.928 226.281L238.162 215.942C243.024 211.454 258.333 199.2 264.315 200.474C265.543 200.735 268.869 207.777 274.309 209.717C284.223 203.206 287.671 198.709 293.621 211.966C298.782 213.511 307.355 209.608 311.092 206.413C317.399 201.02 324.791 202.407 327.074 210.576C336.406 206.427 345.477 200.776 352.676 193.474C354.088 191.663 355.786 190.058 357.75 188.854L357.828 186.454C358.073 185.131 357.961 183.652 357.972 182.304L357.483 176.868L357.07 172.392L356.28 168.031L355.086 163.045L353.973 159.668L352.447 156.092L349.954 151.056L349.148 149.125C348.72 148.293 348.617 148.073 347.739 147.769L347.625 147.127C347.151 146.042 346.316 145.282 345.995 144.1L346.174 143.835C345.644 141.64 340.207 133.806 338.828 132.094C337.262 132.554 335.621 133.431 334.27 134.338L329.371 136.875L317.983 143.125C314.599 144.802 310.783 146.474 307.675 148.631C306.661 148.938 305.696 149.645 304.774 150.176L267.545 171.838C278.665 159.069 298.317 149.094 313.34 141.939L325.452 135.724C327.861 134.469 330.642 133.303 332.811 131.679C334.239 131.08 335.744 130.167 336.967 129.213C334.42 126.17 329.448 120.194 325.412 119.088L322.248 121.165L305.28 130.973C310.597 125.637 317.278 121.99 323.171 117.388L315.283 113.025L313.865 112.348ZM163.409 258.835C163.061 259.052 161.909 259.907 161.569 259.905L155.724 264.136C153.67 265.633 151.335 267.622 149.044 268.718C145.785 271.617 141.608 272.908 137.979 275.117L141.438 273.999C141.767 273.815 142.005 273.729 142.375 273.623L142.415 274.121C141.464 274.518 140.07 275.678 139.251 276.312L138.978 277.065L136.46 278.84L114.961 289.987L71.6503 315.597C62.2462 321.327 29.3697 338.903 25.7706 349.093L26.0432 349.014C29.5017 348.073 42.4514 347.509 35.42 352.503C31.7484 355.111 27.1698 353.393 25.0184 354.786C26.2669 361.053 61.4896 347.919 57.0831 356.209C70.0849 351.856 82.2056 342.719 92.6802 333.998L142.435 290.297C144.227 288.82 146.489 287.374 148.031 285.67L183.061 259.237L181.999 259.038C181.362 258.979 180.93 259.045 180.423 259.444L180.164 259.664C179.298 259.503 178.39 259.707 177.656 259.12L176.25 259.627C175.237 260.223 174.181 261.569 173.188 261.876L172.875 262.5C171.76 261.921 170.866 262.467 169.744 262.445L169.5 262.439C169.208 262.656 168.866 262.819 168.5 262.875L168.125 262.877C167.599 263.483 166.855 264.629 166.574 265.376L166 266.625C165.762 266.996 165.551 267.336 165.269 267.68L164.626 268.688C163.772 269.514 162.597 269.513 161.879 270.23L161.062 270.438C160.526 265.916 163.121 265.961 164.245 262.755C165.285 259.787 166.392 260.528 168.34 259.575L167.778 259.028C168.101 258.771 168.246 258.623 168.438 258.243L168.748 257.85C169.229 257.498 168.67 257.532 168.624 257.188C168.577 256.835 168.848 256.023 168.912 255.623L168.875 254.644L166.851 256.151C165.743 256.889 164.337 257.874 163.409 258.835ZM272.067 103.132C261.91 104.51 250.91 106.31 242.335 112.337C237.658 115.623 234.163 119.823 228.75 122.001L227.706 122.423C225.336 123.24 223.133 125.212 221.368 126.952C218.144 130.627 214.628 134.53 212.061 138.692L209.07 143.52C207.823 145.148 206.499 146.734 207.124 148.814C204.953 151.967 203.451 155.602 202.78 159.377C203.438 159.026 204.219 158.054 204.771 157.521L209.792 152.749C213.892 148.995 218.168 145.318 222.805 142.239C236.881 132.892 264.847 123.824 275.332 111.68L280.236 107.778C280.909 107.281 281.609 106.643 282.416 106.393L283.283 105.726L283.37 104.75C283.556 103.887 283.617 103.119 283.662 102.239L272.067 103.132ZM364.806 415.125C360.075 418.792 354.679 421.665 349.582 424.793L309.565 448.457L252.25 484.996C249.061 486.987 245.773 489.069 242.125 490.099L241.5 489.734C239.747 490.208 237.889 490.549 236.208 491.236L236.375 491.418C238.336 491.237 240.197 490.673 242.173 490.616L251.375 490.768C253.662 490.834 256.028 490.921 258.25 490.309L258.562 490.227C260.114 489.788 261.68 488.822 263.08 488.035L305.251 461.001L357.509 429.806C366.677 423.265 362.33 425.471 365.228 415.172L364.806 415.125ZM105.3 125.165L86.928 139.425C79.2299 145.942 78.7246 149.171 75.866 159.028C80.7211 156.501 85.7587 154.772 90.4382 151.892C87.859 155.835 81.4066 161.93 77.8356 165.102C74.4275 168.13 72.83 168.041 72.2722 172.815L71.6365 177.673C73.2203 176.864 74.4729 175.682 75.875 174.61L133.962 131.844C133.489 130.505 133.068 129.871 131.875 129.115C126.551 129.598 111.502 135.568 106.749 138.716L95.8775 146.125C96.4346 145.556 96.8307 145.149 97.5012 144.751L98.0552 144.215C99.0352 143.229 100.495 142.155 101.627 141.375L103.899 139.546C104.228 139.268 104.527 139.109 104.877 138.875L105.5 138.396C106.828 137.369 108.313 136.601 109.416 135.308L107.797 135.075C107.527 134.509 107.32 134.343 106.875 133.917L106.833 133.125C106.55 132.092 106.104 130.193 106.388 129.212L106.472 128.972C106.789 127.327 107.748 125.016 108.693 123.649C107.616 124.072 106.719 124.725 105.592 125.076L105.3 125.165ZM174.134 379.04L174.417 380.5C174.597 381.105 175.857 381.743 176.35 382.134L199.217 373.815C204.734 371.62 209.87 368.479 215.071 365.64L228.219 358.766C230.739 357.423 233.337 355.599 235.962 354.542C236.301 354.055 236.138 354.189 236.596 353.883L239.25 352.131C240.107 351.515 241.183 350.784 242.134 350.307L242.875 349.877C243.591 349.43 244.286 348.972 244.808 348.293L246.089 346.726C246.579 344.427 246.143 342.303 246.059 340C245.779 332.371 243.485 333.931 239.219 328.281C233.443 335.166 225.591 340.617 218.579 346.216L200.478 360.968C194.293 365.704 187.838 369.888 181.335 374.157L174.134 379.04ZM155.122 250.909L155.413 251.003C155.801 251.124 155.641 251.092 156 251.125L155.884 251.407C154.823 254.078 155.212 252.723 156.75 253.627L158.341 254.46C158.827 256.52 156.792 257.135 155.49 258.208L154.75 258.377L155.606 258.586C155.205 259.097 155.033 259.023 154.427 259.182L152.623 259.375C153.416 259.638 159.004 260.174 160.125 259.877L161.569 259.905C161.909 259.907 163.061 259.052 163.409 258.835C164.337 257.874 165.743 256.889 166.851 256.151L168.875 254.644L168.912 255.623C168.848 256.023 168.577 256.835 168.624 257.188C168.67 257.532 169.229 257.498 168.748 257.85L168.438 258.243C168.246 258.623 168.101 258.771 167.778 259.028L168.34 259.575C166.392 260.528 165.285 259.787 164.245 262.755C163.121 265.961 160.526 265.916 161.062 270.438L161.879 270.23C162.597 269.513 163.772 269.514 164.626 268.688L165.269 267.68C165.551 267.336 165.762 266.996 166 266.625L166.574 265.376C166.855 264.629 167.599 263.483 168.125 262.877L168.5 262.875C168.866 262.819 169.208 262.656 169.5 262.439L169.744 262.445C170.866 262.467 171.76 261.921 172.875 262.5L173.188 261.876C174.181 261.569 175.237 260.223 176.25 259.627L177.656 259.12C178.39 259.707 179.298 259.503 180.164 259.664L180.423 259.444C180.93 259.045 181.362 258.979 181.999 259.038L183.061 259.237C185.925 257.766 188.705 256.144 191.759 255.081C195.149 252.889 199.356 252.09 202.781 249.718L202.183 248.835C201.798 247.822 201.847 247.083 200.875 246.5L200.75 245.875C200.428 246.128 200.273 246.241 199.875 246.373L199.688 245.562C199.367 244.611 198.974 243.515 200.488 244.121L201.312 243.812C201.757 244.246 202.149 244.282 202.735 244.379L202.971 244.416C196.7 237.511 192.091 229.638 186.865 221.967C179.7 232.958 165.724 243.536 155.122 250.909ZM136.254 168.876C135.879 169.957 135.253 170.589 134.718 171.523C132.268 177.179 126.466 180.827 121.75 184.453L86.6312 209.134C79.3761 214.253 81.5514 211.724 82.7023 218.628C90.1415 213.84 96.6006 208.23 104.576 204.162C102.774 207.038 100.506 210.063 98.0554 212.408C91.9417 218.259 83.7363 223.847 81.5098 232.785C82.8534 232.353 84.5103 230.37 85.6432 229.382L96.3765 220.42C98.591 218.699 100.595 216.966 103.234 215.95L102.24 215.497L102.096 215.231C102.818 213.267 104.42 211.672 105.76 210.106C119.13 193.202 134.96 191.17 148.634 178.866C150.31 177.358 163.459 164.088 163.471 163.868C154.435 165.488 144.74 165.082 136.254 168.876ZM362.703 435.625C355.925 440.662 348.344 444.811 340.994 448.949L306.834 468.375L291.75 478.489C284.593 483.687 278.147 488.828 269.78 491.875L270.545 492.101C290.899 490.074 289.254 488.93 306.363 479.464L360.958 448.563C361.729 448.064 363.093 447.557 363.717 446.942L362.703 435.625ZM418.847 125.376L418.593 125.755C418.247 126.253 417.91 126.417 417.376 126.678L417.375 127.128C418.074 127.372 418.781 127.517 419.475 127.784L425.374 129.958C426.233 130.36 427.235 130.14 427.827 131L427.41 133.429C427.016 136.046 425.118 139.391 428.021 141.271C428.974 140.879 430.139 139.801 430.986 139.165L438.586 133.374C447.643 126.786 457.354 120.793 465.885 113.538L456.786 100.578C443.779 111.864 432.579 116.929 418.847 125.376ZM133.754 396.142L123.329 402.624L123.25 401.664C122.74 401.847 122.463 401.925 122.147 402.379C121.656 404.288 111.442 411.343 109.685 412.45C109.305 412.689 106.788 414.113 106.733 414.365L107.604 414.371C108.052 413.942 108.642 413.816 109.125 413.373L109.627 414.125C108.845 415.099 107.809 415.369 107.312 416.708C106.25 418.92 87.6108 431.727 84.4068 434.208C85.4542 436.231 86.3517 438.096 87.8622 439.822L131.736 412.51C134.198 410.956 137.502 409.291 139.537 407.215C139.682 406.82 139.784 406.504 140.089 406.197L141.127 404.875L137.75 403.414C137.004 402.452 137.007 401.397 136.459 400.449L135.957 399.335C134.765 396.602 137.211 395.348 133.754 396.142ZM104.501 382.444C100.116 385.955 82.5756 401.47 79.4688 406.18L80.3761 409.211C81.2605 412.997 78.6327 417.903 83.0682 415.439L107.088 400.808L119.075 394.931C119.384 394.519 119.248 394.626 119.627 394.366L119.875 394.206C119.292 393.772 118.823 393.542 118.119 393.362L117.75 393.271C116.803 392.971 115.896 393.061 114.964 392.821L113.375 392.385C113.078 392.277 112.81 392.146 112.501 392.066L111.561 391.808C111.197 391.705 111.029 391.64 110.712 391.413L109.023 390.227C105.964 388.728 105.703 385.238 105.627 382.375L104.501 382.444ZM343.867 475.243C345.472 474.703 346.738 474.313 348.021 473.148L349.927 471.187C352.776 468.224 361.736 460.537 366.273 461.654L364.892 451.016C362.551 452.812 360.334 454.783 357.875 456.419L343.947 464.742C340.885 466.703 338.116 469.199 334.968 470.982C325.307 476.451 314.862 480.707 306.03 487.555C304.962 488.384 304.071 489.565 302.964 490.276L310.401 490.305C313.788 490.287 313.815 490.152 316.039 487.625C321.733 481.153 325.672 479.932 331.125 475.206L331.5 476.115C332.503 475.851 333.436 475.314 334.362 474.855L322.45 490.549C325.446 490.252 329.358 489.971 331.316 487.284C336.425 480.272 332.559 474.098 337.229 470.625L337.56 470.367C342.975 466.245 343.279 473.972 343.867 475.243ZM458.994 254.766L458.624 255.586C458.632 256.184 458.927 256.956 459.375 257.377L460.175 257.927C462.975 260.16 464.389 264.512 466.022 265.66C470.763 261.007 484.554 252.267 486.251 245.968L486.505 245.009C489.342 231.933 462.063 252.061 458.994 254.766ZM81.514 195.638C81.1235 195.616 81.279 195.652 80.9004 195.519L80.25 195.875C79.6144 195.897 79.1134 195.933 78.5122 195.677L78.5453 195.493C79.1894 194.86 79.5261 194.463 79.6861 193.555L79.7185 193.339C78.2342 194.95 76.7771 196.714 75.0001 198.009L75.2827 198.965C76.3628 201.277 77.3611 203.809 78.8021 205.92C82.7031 204.329 86.1268 201.782 89.5262 199.333L110.394 183.599C115.289 179.67 120.061 175.252 125.997 172.938L125.753 172.353C113.819 176.012 101.703 182.869 91.1798 189.362C87.9165 191.376 84.913 193.855 81.514 195.638ZM308.037 269.065C304.084 273.371 299.803 279.926 293.549 280.91C292.974 280.711 292.031 280.762 291.326 280.723L290.821 287.857L294.395 287.242L304.24 286.427C307.228 286.65 307.791 287.306 308.353 284.042L310.006 278.25C311.763 273.014 313.993 268.09 316.66 263.261C313.816 262.364 310.142 267.393 308.037 269.065ZM286.197 337.75C283.747 338.68 279.758 341.419 278.481 343.902L278.375 344.169C280.276 345.842 285.079 343.802 276.743 351.644L275.336 352.836C276.745 354.296 278.744 355.349 280.569 356.197L282.723 354.974C285.913 352.908 295.556 345.933 296.999 342.5C296.833 338.623 289.782 337.813 286.545 337.724L286.197 337.75ZM293.88 301.336C286.634 302.341 272.701 312.918 267.775 318.473C270.377 317.943 272.96 317.462 275.468 316.567C279.106 315.073 300.845 305.1 302.239 302.25C301.103 300.7 295.459 301.063 293.88 301.336ZM90.1995 353.535C89.6426 353.975 88.7832 354.873 88.1507 355.111L76.225 363.84C76.1725 365.09 79.0991 369.422 79.8282 370.723C85.2793 368.182 90.3972 364.174 95.4407 360.878L95.1468 360.266C94.2676 359.156 93.3259 358.083 92.4385 356.975L91.5378 355.5C91.0983 354.763 90.8425 354.095 90.1995 353.535ZM176.238 38.625C164.856 41.4769 153.237 47.793 143.6 54.5501L134.676 61.3849C132.306 63.2035 129.608 64.8546 127.429 66.875L128.125 66.6985C133.253 64.5475 144.15 58.2961 148.804 55.4441C157.93 49.8513 167.005 43.181 176.771 38.7722L176.238 38.625ZM358.937 484.564C359.729 484.069 360.914 482.749 361.144 481.828C365.889 479.513 369.087 478.984 367.018 472.165C362.586 473.914 348.458 485.565 345.537 489.75C348.01 493.011 356.851 488.139 358.937 484.564ZM56.4265 291.967L51.8336 295.18C48.5692 299.439 45.9802 304.637 43.9898 309.615L55.635 303.546C56.357 303.151 57.9506 302.502 58.4401 301.919L59.4988 300.736C59.8753 300.31 59.6036 299.487 59.4988 299.001L59.1225 298.75C58.6794 298.307 58.7695 296.674 58.6225 296C58.4976 295.427 57.3499 293.57 57.145 292.645L56.4265 291.967ZM122.147 402.379C109.393 407.948 107.161 410.113 96.003 418.043C93.5464 419.789 84.3358 423.959 83.3118 426.552L83.5776 427.412C86.063 427.633 90.4703 423.577 92.5809 422.279L106.733 414.365C106.788 414.113 109.305 412.689 109.685 412.45C111.442 411.343 121.656 404.288 122.147 402.379ZM308.522 307.375C306.939 308.616 305.57 310.077 303.989 311.312C301.615 313.167 291.302 318.592 291.043 318.925L292.078 318.875C294.465 318.494 307.799 316.37 308.844 314.92C310.085 313.197 309.361 309.352 309.192 307.315L308.522 307.375ZM366.595 464.352L352.262 474.045C350.717 473.415 350.347 472.83 349.927 471.187L348.021 473.148C346.738 474.313 345.472 474.703 343.867 475.243L344.281 476.246C343.998 477.367 344.146 478.74 344.149 479.898C350.002 476.087 356.392 473.095 362.36 469.417C364.485 468.107 367.36 467.299 366.595 464.352ZM468.791 270.342C468.237 271.128 468.006 271.688 468.195 272.661L468.332 273.228C468.691 274.676 468.837 275.519 469.835 276.785C472.228 275.061 475.164 272.762 476.873 270.367L477.076 270.072C478.563 267.948 479.434 265.457 480.346 263.047C479.598 263.198 477.684 265.237 476.936 265.806C474.415 267.723 471.753 269.22 468.791 270.342ZM272.17 334.054C267.778 334.657 267.586 338.253 264.425 339.224C263.362 339.55 262.315 339.811 261.321 340.324L261.026 340.75C261.723 342.546 268.379 349.748 267.413 344.749L267.252 344.494C266.22 342.898 264.676 341.783 263.773 340.125L265.656 339.868C266.557 339.043 268.204 338.957 269.355 338.664C274.21 337.428 278.765 332.833 272.17 334.054ZM267.539 306.625C262.471 309.148 258.05 309.758 253.999 314.097L255.698 315.866C258.126 317.261 260.028 314.67 261.738 313.028L267.539 306.625ZM257.333 302.314C255.481 302.729 254.828 303.306 253.812 304.875L253.812 305.479C255.292 305.972 259.056 305.252 260.56 304.735C261.235 304.513 264.749 303.536 265.008 303.06C262.507 302.556 259.885 302.241 257.333 302.314Z" transform="scale(2.92969)" class="color0d3b66 svgShape"></path><path fill="#308791" d="M292.738 38.8488L292.567 39.3139C292.344 39.8949 292.061 40.1955 291.625 40.6275L292.75 40.6275C293.098 40.3847 293.633 40.5451 294.025 40.6C292.688 41.4207 291.381 42.3753 289.805 42.6303L288.8 41.67L289.134 41.5051C290.59 40.8419 291.564 39.9215 292.738 38.8488Z" transform="scale(2.92969)" class="color306b91 svgShape"></path><path fill="#7a715b" d="M221.338 237.116C221.097 236.623 221.237 236.746 220.849 236.467L219.789 235.125C221.098 234.466 222.506 234.057 223.905 233.638L223.809 235.54C222.813 235.648 222.043 236.465 221.338 237.116Z" transform="scale(2.92969)" class="color5b7a78 svgShape"></path><path fill="#4a7a80" d="M202.781 249.718L203.443 249.565C201.383 252.122 196.975 255.706 193.946 257.222C193.819 256.968 193.863 257.121 193.876 256.751L194.25 256.5C195.107 255.826 196.008 254.99 196.939 254.43L197.251 253.499C196.764 253.335 196.646 253.389 196.191 253.616L194.625 254.373C194.008 254.578 194.379 254.399 193.93 254.624L191.759 255.081C195.149 252.889 199.356 252.09 202.781 249.718Z" transform="scale(2.92969)" class="color4a6d80 svgShape"></path><path fill="#308791" d="M221.368 126.952L220.924 125C219.8 124.108 218.115 125.669 217.495 124.125C219.146 122.266 225.341 121.352 227.706 122.423C225.336 123.24 223.133 125.212 221.368 126.952Z" transform="scale(2.92969)" class="color306b91 svgShape"></path><path fill="#b6ac91" d="M223.905 233.638C226.318 232.579 232.412 223.429 237.381 220.607C235.881 222.892 230.191 228.003 229.87 230.367L229.873 230.619C228.758 232.175 225.641 234.983 223.809 235.54L223.905 233.638Z" transform="scale(2.92969)" class="colorb6b491 svgShape"></path><path fill="#428d96" d="M81.1723 378.203C81.9644 377.14 82.6532 376.504 83.6334 375.688L85.2512 374.501C88.0786 373.135 90.448 370.484 92.9898 368.697L92.2488 370.438C91.9817 370.974 91.6608 371.29 91.2182 371.691L91.4375 372.626L92.0625 372.001C92.6229 371.574 93.2403 371.039 93.9148 370.863L93.9602 371.535C91.776 372.444 86.933 378.218 85.7373 378.348C85.238 378.851 82.9501 381.486 82.486 381.575L81.4375 381.876L81.6225 381.125C81.6227 380.47 81.4156 379.896 81.2238 379.278L80.4557 378.875L81.1723 378.203Z" transform="scale(2.92969)" class="color428496 svgShape"></path><path fill="#33696f" d="M81.1723 378.203C82.531 378.292 83.9772 377.302 85.5004 377.123L85.8775 377.5C85.7136 377.906 85.6434 377.888 85.3006 378.127L85.7373 378.348C85.238 378.851 82.9501 381.486 82.486 381.575L81.4375 381.876L81.6225 381.125C81.6227 380.47 81.4156 379.896 81.2238 379.278L80.4557 378.875L81.1723 378.203Z" transform="scale(2.92969)" class="color33606f svgShape"></path><path fill="#72effe" d="M348.021 473.148C348.633 473.904 348.809 474.408 348.92 475.371C347.856 475.162 345.239 475.773 344.281 476.246L343.867 475.243C345.472 474.703 346.738 474.313 348.021 473.148Z" transform="scale(2.92969)" class="color90c0e1 svgShape"></path><path fill="#6bbac4" d="M348.021 473.148L349.927 471.187C350.347 472.83 350.717 473.415 352.262 474.045C351.467 474.662 350.753 475.319 349.75 475.55L348.92 475.371C348.809 474.408 348.633 473.904 348.021 473.148Z" transform="scale(2.92969)" class="color6ba4c4 svgShape"></path><path fill="#caf5fa" d="M283.662 102.239C285.42 102.295 287.216 102.352 288.938 102.737L293.618 103.991L287.308 106.731L285.356 108.272C284.278 109.087 283.222 109.943 282.049 110.617C281.647 111.191 280.179 111.967 279.546 112.399L266.578 120.404C268.195 118.485 270.588 116.995 272.564 115.452L279.448 109.651L282.416 106.393L283.283 105.726L283.37 104.75C283.556 103.887 283.617 103.119 283.662 102.239Z" transform="scale(2.92969)" class="colorfaf0ca svgShape"></path><path fill="#308791" d="M349.927 471.187C352.776 468.224 361.736 460.537 366.273 461.654L366.595 464.352 352.262 474.045C350.717 473.415 350.347 472.83 349.927 471.187zM358.937 484.564C355.618 484.911 352.715 485.828 349.557 486.854 351.263 482.856 358.675 479.845 362.635 479.052L361.144 481.828C360.914 482.749 359.729 484.069 358.937 484.564z" transform="scale(2.92969)" class="color306b91 svgShape"></path><path fill="#52a9b3" d="M79.7185 193.339L79.6861 193.555C79.5261 194.463 79.1894 194.86 78.5453 195.493L78.5122 195.677C79.1134 195.933 79.6144 195.897 80.25 195.875L80.9004 195.519C81.279 195.652 81.1235 195.616 81.514 195.638C79.5271 196.846 77.5672 198.41 75.2827 198.965L75.0001 198.009C76.7771 196.714 78.2342 194.95 79.7185 193.339Z" transform="scale(2.92969)" class="color5285b3 svgShape"></path><path fill="#428d96" d="M122.147 402.379C122.463 401.925 122.74 401.847 123.25 401.664L123.329 402.624C121.219 404.358 119.43 406.299 117.457 408.166L111 413.739C109.796 414.717 108.637 415.915 107.312 416.708C107.809 415.369 108.845 415.099 109.627 414.125L109.125 413.373C108.642 413.816 108.052 413.942 107.604 414.371L106.733 414.365C106.788 414.113 109.305 412.689 109.685 412.45C111.442 411.343 121.656 404.288 122.147 402.379Z" transform="scale(2.92969)" class="color428496 svgShape"></path><path fill="#f6ca59" d="M272.067 103.132L283.662 102.239C283.617 103.119 283.556 103.887 283.37 104.75L283.283 105.726L282.416 106.393C281.609 106.643 280.909 107.281 280.236 107.778L275.332 111.68C264.847 123.824 236.881 132.892 222.805 142.239C218.168 145.318 213.892 148.995 209.792 152.749L204.771 157.521C204.219 158.054 203.438 159.026 202.78 159.377C203.451 155.602 204.953 151.967 207.124 148.814C206.499 146.734 207.823 145.148 209.07 143.52L212.061 138.692C214.628 134.53 218.144 130.627 221.368 126.952C223.133 125.212 225.336 123.24 227.706 122.423L228.75 122.001C234.163 119.823 237.658 115.623 242.335 112.337C250.91 106.31 261.91 104.51 272.067 103.132ZM227.706 122.423C225.336 123.24 223.133 125.212 221.368 126.952C218.144 130.627 214.628 134.53 212.061 138.692L212.375 139.623C213.682 139.791 215.125 138.014 216.718 137.839L224.109 132.071L230.218 127.344C231.155 125.165 252.307 114.358 255.226 113.025C260.147 110.778 265.718 108.938 270.207 105.93L271.548 104.56C271.992 104.082 272.091 103.773 272.067 103.132C261.91 104.51 250.91 106.31 242.335 112.337C237.658 115.623 234.163 119.823 228.75 122.001L227.706 122.423Z" transform="scale(2.92969)" class="colorf4d35e svgShape"></path><path fill="#b59e63" d="M230.218 127.344C230.502 128.776 226.593 132.826 225.311 134.064L224.109 132.071L230.218 127.344Z" transform="scale(2.92969)" class="colorb5af63 svgShape"></path><path fill="#7a715b" d="M224.109 132.071L225.311 134.064C220.758 137.138 210.44 145.34 207.124 148.814C206.499 146.734 207.823 145.148 209.07 143.52L212.061 138.692L212.375 139.623C213.682 139.791 215.125 138.014 216.718 137.839L224.109 132.071Z" transform="scale(2.92969)" class="color5b7a78 svgShape"></path><path fill="#caf5fa" d="M212.061 138.692L212.375 139.623C213.682 139.791 215.125 138.014 216.718 137.839C215.267 139.103 210.865 143.536 209.07 143.52L212.061 138.692Z" transform="scale(2.92969)" class="colorfaf0ca svgShape"></path><path fill="#f6ca59" d="M229.873 230.619C234.766 225.925 246.718 213.212 252.51 211.401C254.935 214.018 257.018 216.809 259.625 219.277C262.273 221.783 270.72 227.028 271.696 229.912C273.04 233.882 271.084 233.076 270.799 234.45L271.023 234.367C273.084 233.673 272.276 238.347 272.303 240.19L272.398 249.441C272.91 257.699 271.977 277.902 270.2 286.7L265.841 286.028C263.222 285.854 260.345 285.678 257.786 286.367L257.375 286.486C256.354 286.775 254.959 287.912 254.045 287.911L253.803 284.985C253.209 280.076 251.038 274.299 249.2 269.653C253.16 267.875 255.577 265.692 258.847 262.823L266.499 255.713C268.192 254.029 269.918 252.376 271.19 250.34C266.942 250.79 252.015 265.648 248.898 268.821L244.018 259.16C246.96 258.812 256.672 248.139 259.362 245.727C261.064 244.202 269.625 238.253 269.625 236.237C265.276 233.257 245.434 254.482 242.676 257.727L235.009 249.65L232.827 247.28C232.047 246.868 231.476 246.215 230.86 245.597L227.234 242.316L221.338 237.116C222.043 236.465 222.813 235.648 223.809 235.54C225.641 234.983 228.758 232.175 229.873 230.619Z" transform="scale(2.92969)" class="colorf4d35e svgShape"></path><path fill="#caf5fa" d="M253.803 284.985L254.144 284.817C256.132 283.792 257.899 282.119 260 281.041L260.108 281.413C258.955 282.03 256.11 283.612 254.398 285.608L254.633 285.861C255.226 286.519 255.162 286.872 256 286.439L256.988 286.101C257.434 285.934 257.762 286.013 258.188 285.911L258.625 285.735C260.667 285.253 264.042 284.989 265.841 285.958C263.222 285.854 260.345 285.678 257.786 286.367L257.375 286.486C256.354 286.775 254.959 287.912 254.045 287.911L253.803 284.985Z" transform="scale(2.92969)" class="colorfaf0ca svgShape"></path><defs><linearGradient id="a" x1="231.92" x2="258.433" y1="244.512" y2="229.217" gradientUnits="userSpaceOnUse"><stop offset="0" stop-color="#5e5235" class="stopColor354c5e svgShape"></stop><stop offset="1" stop-color="#77746d" class="stopColor77766d svgShape"></stop></linearGradient></defs><path fill="url(#a)" d="M254.842 224.455L256.817 225C254.373 229.245 250.548 233.012 247.373 236.734L239.961 245.376C238.503 246.969 237.012 248.747 235.009 249.65L232.827 247.28C238.106 242.851 242.265 237.23 246.984 232.244C249.47 229.616 252.573 227.218 254.842 224.455Z" transform="scale(2.92969)"></path><path fill="#f6ca59" d="M202.757 160.55C203.67 159.662 204.825 158.965 205.851 158.209L211.722 153.945C219.787 148.217 228.038 142.983 236.82 138.418L259.472 127.692C268.129 123.463 286.038 113.929 292.418 106.341C293.111 105.517 293.686 104.63 294.732 104.261C298.398 105.406 302.742 106.743 305.979 108.855L306.395 109.091C306.852 109.356 307.083 109.62 307.379 110.062L307.76 110.057C308.193 110.054 308.032 110.023 308.287 110.092C310.336 110.187 312.092 111.401 313.865 112.348L313.121 113.507C311.001 116.689 307.236 118.618 304.914 121.572C299.998 125.71 295.139 127.361 289.563 130.369L259.923 146.504L204.331 182.647C201.417 185.275 200.67 187.118 198.544 189.291C198.409 182.93 198.875 174.559 200.379 168.302C200.965 165.628 201.598 163.039 202.757 160.55Z" transform="scale(2.92969)" class="colorf4d35e svgShape"></path><path fill="#4e4d49" d="M305.979 108.855L306.395 109.091C306.852 109.356 307.083 109.62 307.379 110.062L307.76 110.057C308.193 110.054 308.032 110.023 308.287 110.092C305.775 110.535 303.817 112.902 301.803 114.318L286.025 124.798C283.743 126.187 281.244 127.393 278.785 128.429L305.979 108.855Z" transform="scale(2.92969)" class="color494b4e svgShape"></path><path fill="#0d5c66" d="M202.601 171.955C208.287 165.569 224.088 154.363 231.642 150.261C229.015 153.094 226.141 155.228 223.115 157.589L212.552 165.897C210.523 167.534 202.796 175.646 200.512 175.768C200.868 174.406 201.858 173.142 202.601 171.955Z" transform="scale(2.92969)" class="color0d3b66 svgShape"></path><path fill="#f6ca59" d="M357.75 188.854L357.328 195.039C356.093 205.685 352.375 213.935 346.469 222.596L326.456 248.485C322.839 253.177 320.215 258.52 316.705 263.234L316.66 263.261C313.816 262.364 310.142 267.393 308.037 269.065C304.084 273.371 299.803 279.926 293.549 280.91C292.974 280.711 292.031 280.762 291.406 280.723L291.527 278.569L291.782 264.73L292.108 264.528C294.955 260.321 311.628 247.385 315.788 244.361C310.55 244.844 294.447 260.648 292.052 261.235L291.75 261.093C291.693 258.242 291.361 254.812 291.96 252.044L290.938 246.105L289.217 225.378C293.522 225.389 298.224 225.705 302.487 225.192L302.875 225.142C307.456 224.598 311.784 222.698 315.74 220.412C319.836 217.627 324.097 214.584 327.074 210.576C336.406 206.427 345.477 200.776 352.676 193.474C354.088 191.663 355.786 190.058 357.75 188.854Z" transform="scale(2.92969)" class="colorf4d35e svgShape"></path><path fill="#7a715b" d="M295.308 241.2L298.42 238.062C299.184 238.415 300.686 238.878 301.081 239.625L300.676 240.258C299.095 240.203 296.978 240.993 295.308 241.2Z" transform="scale(2.92969)" class="color5b7a78 svgShape"></path><path fill="#4a7a80" d="M295.308 241.2C296.978 240.993 299.095 240.203 300.676 240.258L296.664 245.303L295.375 244.494C294.325 244.51 293.728 244.452 292.787 243.972L295.308 241.2Z" transform="scale(2.92969)" class="color4a6d80 svgShape"></path><path fill="#33696f" d="M292.787 243.972C293.728 244.452 294.325 244.51 295.375 244.494L296.664 245.303C295.1 247.374 292.973 249.667 291.96 252.044L290.938 246.105L292.787 243.972Z" transform="scale(2.92969)" class="color33606f svgShape"></path><path fill="#caf5fa" d="M357.75 188.854L357.328 195.039C355.993 195.448 355.128 196.02 354.071 196.82C348.981 200.697 344.512 205.257 339.367 209.048C336.186 211.391 320.51 220.242 316.375 220.903L315.74 220.412C319.836 217.627 324.097 214.584 327.074 210.576C336.406 206.427 345.477 200.776 352.676 193.474C354.088 191.663 355.786 190.058 357.75 188.854Z" transform="scale(2.92969)" class="colorfaf0ca svgShape"></path><path fill="#308791" d="M163.409 258.835C162.056 260.378 160.126 261.487 158.501 262.756L143.482 274.054C142.471 274.771 140.123 276.865 138.978 277.065L139.251 276.312C140.07 275.678 141.464 274.518 142.415 274.121L142.375 273.623C142.005 273.729 141.767 273.815 141.438 273.999L137.979 275.117C141.608 272.908 145.785 271.617 149.044 268.718C151.335 267.622 153.67 265.633 155.724 264.136L161.569 259.905C161.909 259.907 163.061 259.052 163.409 258.835Z" transform="scale(2.92969)" class="color306b91 svgShape"></path><path fill="#f6ca59" d="M313.865 112.348L315.283 113.025L323.171 117.388C317.278 121.99 310.597 125.637 305.28 130.973L322.248 121.165L325.412 119.088C329.448 120.194 334.42 126.17 336.967 129.213C335.744 130.167 334.239 131.08 332.811 131.679C330.642 133.303 327.861 134.469 325.452 135.724L313.34 141.939C298.317 149.094 278.665 159.069 267.545 171.838L304.774 150.176C305.696 149.645 306.661 148.938 307.675 148.631C310.783 146.474 314.599 144.802 317.983 143.125L329.371 136.875L334.27 134.338C335.621 133.431 337.262 132.554 338.828 132.094C340.207 133.806 345.644 141.64 346.174 143.835L345.995 144.1C346.316 145.282 347.151 146.042 347.625 147.127L347.739 147.769C348.617 148.073 348.72 148.293 349.148 149.125L349.954 151.056L352.447 156.092L353.973 159.668L355.086 163.045L356.28 168.031L357.07 172.392L357.483 176.868L357.972 182.304C357.961 183.652 358.073 185.131 357.828 186.454L357.75 188.854C355.786 190.058 354.088 191.663 352.676 193.474C345.477 200.776 336.406 206.427 327.074 210.576C324.791 202.407 317.399 201.02 311.092 206.413C307.355 209.608 298.782 213.511 293.621 211.966C287.671 198.709 284.223 203.206 274.309 209.717C268.869 207.777 265.543 200.735 264.315 200.474C258.333 199.2 243.024 211.454 238.162 215.942L227.928 226.281C226.27 228.504 220.941 235.64 217.799 233.645C215.652 230.676 211.069 229.356 209.964 225.374C212.543 223.687 214.553 221.271 216.77 219.157L227.834 208.129C230.808 205.066 233.57 202.518 235.443 198.645C232.583 200.698 230.084 203.382 227.361 205.646C220.998 210.936 213.964 216.017 208.243 221.989L207.621 222.287C205.845 221.285 204.073 215.758 203.445 213.958C206.6 212.734 208.509 210.435 210.946 208.182L236.088 187.599C238.661 185.342 241.265 182.868 243.46 180.239C241.164 181.329 238.818 183.283 236.652 184.679L214.922 199.84C209.109 204.313 207.466 206.286 202.625 210.993C200.901 209.587 200.303 203.386 200.051 201.137L199.569 197.763L199.534 197.544C199.05 196.482 198.902 194.972 198.928 193.815L202.511 190.698C212.648 181.598 223.311 172.809 234.861 165.535L251.16 156.247C266.146 147.755 281.323 139.645 295.416 129.684L305.345 121.934L304.914 121.572C307.236 118.618 311.001 116.689 313.121 113.507L313.865 112.348ZM334.27 134.338L329.371 136.875L317.983 143.125C314.599 144.802 310.783 146.474 307.675 148.631C309.391 148.677 311.188 147.043 312.808 146.327L313.384 146.064C318.58 150.197 315.817 149.903 313.049 152.625C311.274 154.37 308.585 155.23 306.691 156.875C300.222 160.557 290.345 165.274 285.266 170.809L304.008 164.618C304.266 164.649 305.062 164.348 305.353 164.269L309.089 163.185L309.375 164.416C313.857 163.554 319.175 161.013 323.194 158.878L331.859 155.139L347.739 147.769L347.625 147.127C347.151 146.042 346.316 145.282 345.995 144.1L346.174 143.835C345.644 141.64 340.207 133.806 338.828 132.094C337.262 132.554 335.621 133.431 334.27 134.338ZM348.134 158.352C342.913 161.495 339.779 164.26 335.267 168.284L330.242 172.574C329.643 173.116 328.851 173.749 328.621 174.552L328.589 174.75C331.471 176.266 345.829 163.518 350.422 161.394C349.754 159.841 350.919 159.101 348.134 158.352Z" transform="scale(2.92969)" class="colorf4d35e svgShape"></path><path fill="#b59e63" d="M199.569 197.763L199.797 197.727C202.132 197.317 203.68 195.719 205.366 194.205 203.783 196.72 201.966 198.874 200.051 201.137L199.569 197.763zM313.865 112.348L315.283 113.025C314.171 114.458 307.114 121.26 305.345 121.934L304.914 121.572C307.236 118.618 311.001 116.689 313.121 113.507L313.865 112.348z" transform="scale(2.92969)" class="colorb5af63 svgShape"></path><path fill="#caf5fa" d="M348.134 158.352C349.503 157.375 350.817 156.555 352.447 156.092L353.973 159.668 350.422 161.394C349.754 159.841 350.919 159.101 348.134 158.352zM202.511 190.698C203.155 191.232 203.777 191.669 204.5 192.089 203.348 193.185 200.492 197.084 199.534 197.544 199.05 196.482 198.902 194.972 198.928 193.815L202.511 190.698z" transform="scale(2.92969)" class="colorfaf0ca svgShape"></path><path fill="#b6ac91" d="M217.799 233.645C219.695 230.457 222.939 227.935 225.609 225.375L225.928 225.385C224.068 227.587 224.852 228.244 221.676 230.801L222.438 231.376L223.312 230.501C223.97 230.099 223.276 230.738 223.926 230.088L226.785 226.942C227.124 226.483 227.405 226.481 227.928 226.281C226.27 228.504 220.941 235.64 217.799 233.645Z" transform="scale(2.92969)" class="colorb6b491 svgShape"></path><path fill="#caf5fa" d="M357.972 182.304C357.961 183.652 358.073 185.131 357.828 186.454C355.705 187.188 354.082 188.681 352.32 190.033L342.95 197.536C345.059 194.212 354.177 183.943 357.972 182.304Z" transform="scale(2.92969)" class="colorfaf0ca svgShape"></path><path fill="#fcffff" d="M357.483 176.868C354.483 177.72 341.747 188.306 337.923 190.718C340.741 186.161 352.321 175.679 357.07 172.392L357.483 176.868Z" transform="scale(2.92969)" class="colorfffffc svgShape"></path><path fill="#caf5fa" d="M356.28 168.031C348.241 171.53 342.447 178.748 334.905 183.05 336.999 178.811 340.216 175.99 343.638 172.844L355.086 163.045 356.28 168.031zM347.739 147.769C348.617 148.073 348.72 148.293 349.148 149.125L349.954 151.056C348.488 152.797 345.969 154.082 344.001 155.201L337.409 159.09C335.377 160.319 333.38 161.828 331.284 162.904 327.618 165.493 323.932 168.186 319.882 170.142 322.489 166.35 326.474 164 330.155 161.369 330.251 161.097 331.005 160.659 331.25 160.444 333.713 158.285 336.355 155.13 338.247 153.56L340.233 151.863C337.748 152.365 334.64 154.235 332.34 155.349L331.859 155.139 347.739 147.769z" transform="scale(2.92969)" class="colorfaf0ca svgShape"></path><defs><linearGradient id="b" x1="320.257" x2="336.924" y1="148.799" y2="161.562" gradientUnits="userSpaceOnUse"><stop offset="0" stop-color="#70654a" class="stopColor706f4a svgShape"></stop><stop offset="1" stop-color="#266269" class="stopColor263469 svgShape"></stop></linearGradient></defs><path fill="url(#b)" d="M344.006 145.154L345.995 144.1C346.316 145.282 347.151 146.042 347.625 147.127L347.739 147.769L331.859 155.139L323.194 158.878C319.175 161.013 313.857 163.554 309.375 164.416L309.089 163.185C314.317 161.771 319.455 158.76 324.303 156.364L344.006 145.154Z" transform="scale(2.92969)"></path><path fill="#308791" d="M369.384 35.875L370.428 36C368.513 39.6685 356.698 45.7055 353.125 47.2629L369.384 35.875Z" transform="scale(2.92969)" class="color306b91 svgShape"></path><path fill="#0d5c66" d="M366.319 121.081C365.649 113.711 382.142 109.846 387.999 107.401 392.709 105.435 397.587 102.866 402.462 101.396 406.402 100.208 406.238 102.389 403.741 104.797 401.632 106.83 399.312 108.584 396.975 110.341 391.177 113.72 375.399 121.759 368.5 122.459 367.53 122.166 367.05 121.772 366.319 121.081zM418.883 150.6C419.683 150.538 424.147 149.766 423.657 151.375 423.069 153.308 420.113 156.742 418.412 157.732L418.135 157.883C415.479 159.366 412.819 159.566 409.862 159.872L390.562 161.458 386.885 161.6C385.964 161.576 385.326 161.695 384.669 161 386.143 152.804 398.389 152.122 404.731 151.603L418.883 150.6zM373.091 71.375L373.753 71.2508C374.897 71.617 375.883 73.3287 376.524 74.311 372.849 81.9364 358.8 98.47 351.158 103.157 348.536 103.851 347.76 101.094 348.581 99.0234 351.964 90.4926 364.477 75.0526 373.091 71.375zM302.515 89.3307C303.033 89.0503 312.242 77.4044 313.089 76.2271L326.181 56.56C329.575 51.7122 348.27 26.5722 353.75 25.2449 354.799 25.5749 355.665 25.7068 356.76 25.7417L357.108 25.75 357.672 26.125C357.83 28.8271 353.612 32.5505 351.993 34.5L335.332 54.0548C326.534 64.7872 316.627 87.1838 302.961 90.2625L302.515 89.3307z" transform="scale(2.92969)" class="color0d3b66 svgShape"></path><path fill="#4a7a80" d="M252.474 57.8639L259.754 52.1115L260.833 52.9867L255.386 56.3303C254.5 56.8592 253.467 57.5821 252.474 57.8639Z" transform="scale(2.92969)" class="color4a6d80 svgShape"></path><path fill="#52a9b3" d="M102.24 215.497L102.096 215.231C102.818 213.267 104.42 211.672 105.76 210.106L107.599 210.911C105.994 212.421 103.596 213.871 102.24 215.497Z" transform="scale(2.92969)" class="color5285b3 svgShape"></path><path fill="#ffffff" d="M229.996 25.4387C232.593 23.7987 234.943 23.6918 237.71 22.615C236.914 23.571 236 24.9968 234.937 25.6314L234.564 25.4856C233.501 25.0365 231.261 25.4627 229.996 25.4387Z" transform="scale(2.92969)" class="colorffffff svgShape"></path><path fill="#308791" d="M259.754 52.1115L267.969 46.3217 267.86 46.5168C267.248 47.5403 266.437 47.8876 265.504 48.5535L261.626 51.4264 262.48 51.3841C262.86 51.0063 263.528 50.6547 264 50.3775L264.312 50.2512C265.775 49.3893 267.146 48.3288 268.625 47.5L268.939 47.3198C269.353 47.118 269.777 47.1136 270.228 47.0764L260.833 52.9867 259.754 52.1115zM102.175 250.868L122.887 238.872C120.156 241.335 116.547 243.537 113.487 245.62L96.9701 256.522 96.9001 256.111C98.6761 255.017 100.589 253.801 102.251 252.562L103.375 251.877C104.378 251.291 105.563 250.452 106.501 249.751L108.876 247.562 105.999 249.249C105.208 249.658 106.015 249.054 105.324 249.607L104.438 250.249C102.987 250.977 101.626 251.971 100.188 252.749L97.8987 253.579C98.4252 252.768 101.251 251.434 102.175 250.868z" transform="scale(2.92969)" class="color306b91 svgShape"></path><defs><linearGradient id="c" x1="157.744" x2="140.506" y1="201.451" y2="196.049" gradientUnits="userSpaceOnUse"><stop offset="0" stop-color="#4f878e" class="stopColor4f6d8e svgShape"></stop><stop offset="1" stop-color="#89b6bb" class="stopColor89b1bb svgShape"></stop></linearGradient></defs><path fill="url(#c)" d="M160.48 193.625C161.116 193.536 161.098 193.413 161.664 193.792C160.545 195.556 155.566 196.987 153.547 197.827L136.125 204.648L135.207 204.483C138.794 202.204 155.85 194.693 160.48 193.625Z" transform="scale(2.92969)"></path><path fill="#52a9b3" d="M145.456 102.883C145.142 104.856 142.384 105.716 141.072 106.876L123.682 116.075L118.531 118.551L107.155 123.578C106.303 123.147 104.537 123.343 103.547 123.319L103.499 122.94C108.28 123.815 111.175 121.098 115.17 119.058L145.456 102.883Z" transform="scale(2.92969)" class="color5285b3 svgShape"></path><path fill="#308791" d="M157.507 62.161L185.863 45.873L186.311 46.0666C186.43 46.8704 186.412 47.1872 186.208 47.9706L186.171 48.2797C180.819 49.0265 175.12 53.9112 170.578 56.5632C167.76 58.2087 160.573 60.7966 159.453 64.1446C159.451 63.9269 159.211 63.4601 159.127 63.25L159.625 62.75C160.147 62.1426 160.77 61.5814 161.462 61.1641L161.763 60.7605C160.614 60.4574 159.261 61.9834 157.982 62.1233L157.507 62.161Z" transform="scale(2.92969)" class="color306b91 svgShape"></path><defs><linearGradient id="d" x1="125.16" x2="129.789" y1="91.646" y2="105.452" gradientUnits="userSpaceOnUse"><stop offset="0" stop-color="#126e79" class="stopColor124279 svgShape"></stop><stop offset="1" stop-color="#277e89" class="stopColor275d89 svgShape"></stop></linearGradient></defs><path fill="url(#d)" d="M142.56 85.375C143.032 85.2281 143.268 85.2153 143.75 85.2239L143.936 85.625C142.181 91.1482 135.644 94.8691 131.313 98.1341L111.388 112.552L110.637 112.505C112.77 105.614 136.241 88.7644 142.56 85.375Z" transform="scale(2.92969)"></path><path fill="#0d5c66" d="M295.976 20.375C303.478 18.6275 300.392 23.9731 297.314 27.2486C292.616 32.249 287.229 35.0901 280.797 37.296C279.661 37.5393 278.41 37.5713 277.25 37.6769L276.875 36.4362C279.39 32.3802 292.621 21.7503 295.976 20.375Z" transform="scale(2.92969)" class="color0d3b66 svgShape"></path><defs><linearGradient id="e" x1="263.544" x2="266.879" y1="22.746" y2="42.306" gradientUnits="userSpaceOnUse"><stop offset="0" stop-color="#03606b" class="stopColor033f6b svgShape"></stop><stop offset="1" stop-color="#1e838f" class="stopColor1e678f svgShape"></stop></linearGradient></defs><path fill="url(#e)" d="M285.363 19.632C285.944 19.2503 286.439 19.3838 287.119 19.3901L287.633 20.1825C283.222 21.2755 280.012 25.5891 276.246 28.0932C270.836 31.691 265.037 34.4256 259.344 37.5109L250.495 42.6715C248.642 44.1024 246.094 45.6796 243.875 46.4148L243.533 46C244.042 44.2981 247.719 41.554 249.192 40.2551L254.94 34.6651C262.629 27.2333 269.688 21.1856 280.578 20.0039C282.107 19.838 283.606 20.0767 285.103 19.7012L285.363 19.632Z" transform="scale(2.92969)"></path><path fill="#0d5c66" d="M157.507 62.161L157.982 62.1233C159.261 61.9834 160.614 60.4574 161.763 60.7605L161.462 61.1641C160.77 61.5814 160.147 62.1426 159.625 62.75L159.127 63.25C159.211 63.4601 159.451 63.9269 159.453 64.1446L159.549 64.4099C156.438 68.2071 155.869 68.5246 151.913 71.4859L132.806 84.5618C125.283 89.5708 118.068 95.245 109.895 99.1652 112.289 95.4605 115.612 92.5004 118.914 89.6218L150.897 66.0755C153.072 64.7353 155.219 63.2992 157.507 62.161zM163.887 105.527L166.671 105.845C171.66 106.71 188.74 114.524 191.749 118.817L191.077 119.862C189.881 121.683 188.376 123.815 186.125 124.283 183.13 124.443 162.343 112.36 157.747 109.159 159.752 107.619 161.419 106.243 163.887 105.527zM165.558 203.796C171.773 203.155 169.982 211.558 163.058 215.181 159.925 216.82 155.785 217.31 152.344 218.117L140.96 221.124C135.414 222.793 130.203 225.318 124.721 227.125L123.75 227.195 129.875 217.993C128.785 217.303 127.748 217.46 126.479 217.406 131.175 214.351 142.44 210.421 147.796 208.789L165.558 203.796zM181.75 76.291L181.978 76.0984C185.465 73.366 188.924 73.065 193.232 73.5451 195.91 77.3936 206.822 85.9711 210.935 90.3833 211.553 91.2039 212.053 91.9875 212.455 92.9365L212.625 93.3484C214.705 98.3093 210.92 103.324 206.866 103.008 204.777 102.845 199.951 97.1081 198.59 95.6504L189.506 86.3312C181.267 78.5537 182.363 83.7426 178.739 82.9592L181.118 80.6587 180.812 79C180.664 77.5143 180.805 77.3599 181.75 76.291zM226.268 63.2908L226.37 63.0568C226.828 61.9754 226.95 61.021 226.915 59.8521 227.817 58.8313 236.18 50.1713 236.175 55.0182L244.731 63.9434C244.903 64.6163 246.785 66.4342 247.299 67.0629L252.375 73.8725C253.996 76.2737 256.497 80.3519 255.768 83.3371 254.929 86.7704 247.989 90.0695 244.162 85.4611 242.473 83.427 241.29 80.9025 239.801 78.712 238.021 76.0917 229.526 64.1375 226.495 63.3443L226.268 63.2908zM267.969 46.3217L267.979 46.2992C269.743 44.9987 276.361 39.3963 278.008 39.0467 279.474 38.7355 285.331 41.7078 288.8 41.67L289.805 42.6303C290.452 43.1711 290.976 43.5432 291.257 44.375L291.056 44.7498C290.134 46.6254 290.65 50.6089 290.657 52.7187L290.7 68.1185C290.699 72.7688 290.847 73.4774 285.993 75.4335L284.229 76.1007 283.013 76.2342C274.14 77.0511 274.854 68.6675 274.958 62.3121 275.053 56.506 275.27 50.5376 274.9 44.7453 273.437 45.7229 271.778 46.2248 270.228 47.0764 269.777 47.1136 269.353 47.118 268.939 47.3198L268.625 47.5C267.146 48.3288 265.775 49.3893 264.312 50.2512L264 50.3775C263.528 50.6547 262.86 51.0063 262.48 51.3841L261.626 51.4264 265.504 48.5535C266.437 47.8876 267.248 47.5403 267.86 46.5168L267.969 46.3217zM133.498 161.487C141.584 158.776 163.574 155.69 172.463 157.348 169.398 164.622 146.366 185.458 139.883 190.038 136.817 192.203 116.963 204.111 116.415 204.993L107.599 210.911 105.76 210.106C119.13 193.202 134.96 191.17 148.634 178.866 150.31 177.358 163.459 164.088 163.471 163.868 154.435 165.488 144.74 165.082 136.254 168.876 135.879 169.957 135.253 170.589 134.718 171.523 132.594 170.591 128.162 172.228 125.997 172.938L125.753 172.353C113.819 176.012 101.703 182.869 91.1798 189.362 87.9165 191.376 84.913 193.855 81.514 195.638 81.1235 195.616 81.279 195.652 80.9004 195.519L80.25 195.875C79.6144 195.897 79.1134 195.933 78.5122 195.677L78.5453 195.493C79.1894 194.86 79.5261 194.463 79.6861 193.555L79.7185 193.339C80.7513 191.51 84.1347 189.583 85.7995 188.381 100.313 177.908 116.777 167.896 133.498 161.487z" transform="scale(2.92969)" class="color0d3b66 svgShape"></path><path fill="#caf5fa" d="M136.254 168.876C135.879 169.957 135.253 170.589 134.718 171.523C132.594 170.591 128.162 172.228 125.997 172.938L125.753 172.353C126.768 171.848 135.162 169.079 136.254 168.876Z" transform="scale(2.92969)" class="colorfaf0ca svgShape"></path><path fill="#0d5c66" d="M224.92 42.2728C230.594 38.0403 231.967 37.0684 236.707 32.125C240.15 28.5351 249.966 19.9401 255.521 22.21L255.827 22.75C252.487 29.7035 233.822 42.7169 233.375 48.2106C231.478 49.969 229.802 51.2949 227.394 52.278L224.309 50.7185L223.744 46.9662C221.488 45.7527 216.132 51.9869 214.409 53.1638C208.557 57.1605 202.039 60.4358 195.919 64.0172C192.13 66.2339 184.481 72.2549 180.375 72.7164L179.986 72.375C179.99 67.8933 189.474 63.4355 192.704 61.0762L198.787 56.1766C205.379 50.4354 209.742 43.4555 215.593 37.1013C211.651 38.4304 207.891 39.51 204.125 41.3294L203.752 39.3044L203.426 38.0739C199.671 38.7744 198.254 42.2821 195.8 44.7844C190.919 49.7626 185.476 54.3823 179.713 58.3034L186.171 48.2797L186.208 47.9706C186.412 47.1872 186.43 46.8704 186.311 46.0666L185.863 45.873C189.371 43.502 192.822 40.711 196.546 38.7087C199.033 37.3718 201.662 36.6325 204.149 35.1635C212.117 30.2456 221.513 29.2118 229.996 25.4387C231.261 25.4627 233.501 25.0365 234.564 25.4856L234.937 25.6314C232.797 27.6784 227.898 30.1928 227.014 32.9967C225.683 37.2199 213.424 47.8169 210.024 51.3954L217.029 47.3485C220.988 45.1999 221.41 44.6192 224.92 42.2728Z" transform="scale(2.92969)" class="color0d3b66 svgShape"></path><path fill="#308791" d="M178.044 342.596L172.965 345.813C172.148 346.332 171.286 347.007 170.377 347.335C173.514 343.917 177.73 340.849 181.457 338.065L181.353 338.261C180.804 339.258 180.034 339.936 179.141 340.626L180.062 340.501C180.46 340.332 180.657 340.079 181 339.877L181.504 339.63C181.885 339.427 182.314 339.4 182.735 339.336L178.044 342.596Z" transform="scale(2.92969)" class="color306b91 svgShape"></path><defs><linearGradient id="f" x1="355.897" x2="354.353" y1="392.596" y2="394.904" gradientUnits="userSpaceOnUse"><stop offset="0" stop-color="#238995" class="stopColor236f95 svgShape"></stop><stop offset="1" stop-color="#379ca8" class="stopColor3787a8 svgShape"></stop></linearGradient></defs><path fill="url(#f)" d="M361.857 390.673C360.856 391.873 351.596 396.778 350.076 397.502C352.686 394.384 356.054 391.538 358.998 388.707L359.433 389.004C358.341 390.096 357.087 391.176 356.122 392.375L356.249 392.751C356.664 392.854 356.887 392.952 357.312 392.751L358.816 391.884C359.097 391.744 359.249 391.525 359.5 391.377L359.812 391.251C360.523 390.949 360.883 390.518 361.699 390.341L361.857 390.673Z" transform="scale(2.92969)"></path><path fill="#308791" d="M387.027 263.483L385.942 264.793C385.51 265.068 385.269 265.307 384.812 265.562L383.145 266.586C382.589 266.894 382.051 267.387 381.5 267.75L380 268.877C380.753 268.836 380.89 268.783 381.5 268.377L383.137 267.598C384.171 267.079 382.577 267.891 383.75 267.127L384.5 266.875C385.052 266.67 385.376 266.305 386 266.125L386.23 265.884C386.675 265.442 387.282 265.445 387.625 264.877L388 264.875C388.784 264.346 388.813 264.236 389.746 264.348 384.864 267.859 376.213 272.369 370.488 274.25L387.027 263.483zM340.794 416.378C336.653 419.394 324.498 423.46 319.783 424.504L338.396 413.81 336.75 415.375C336.108 415.743 335.604 416.228 335 416.623L333.944 417.148C333.222 417.511 334.064 417.069 333.25 417.623L332.171 418.153C331.831 418.322 331.672 418.556 331.375 418.75L329.374 419.812C329.797 421.3 331.595 419.969 332.5 419.689L332.875 419.5C333.489 419.219 334.039 418.972 334.625 418.627L335.25 418.377C336.73 417.483 339.018 416.201 340.794 416.378z" transform="scale(2.92969)" class="color306b91 svgShape"></path><path fill="#428d96" d="M251.449 361.381L251.446 361.437C246.946 364.802 241.823 367.432 236.843 370.004L211.649 381.739C210.269 382.32 206.779 384.309 205.385 384.125L250.765 360.867L251.449 361.381Z" transform="scale(2.92969)" class="color428496 svgShape"></path><path fill="#0d5c66" d="M417.072 297.625C419.526 297.301 412.58 302.963 412.098 303.382 404.651 309.853 397.414 315.153 388.375 319.214 386.518 319.665 393.016 314.893 393.392 314.618L407.113 305.125C410.489 302.694 413.575 299.893 417.072 297.625zM340.844 343.125L319.961 359.702C317.337 361.774 314.364 364.689 311.125 365.661L310.549 365.267C310.37 364.411 310.826 363.693 311.321 363.045L311.541 362.765C313.63 360.028 317.236 358.021 320.078 356.123L340.844 343.125zM382.711 296.625C384.408 296.547 376.45 302.363 376.003 302.715 367.918 309.09 358.141 317.064 347.948 319.625L347.56 319.375C348.873 317.679 351.203 316.422 352.974 315.203L369.881 304.381C374.074 301.805 378.332 298.848 382.711 296.625zM126.582 431.274C127.68 431.178 128.616 431.626 129.673 431.801 138.89 433.329 132.858 439.275 125.01 438.332 122.654 438.049 120.144 438.811 117.809 439.187L110.182 440.336C115.073 436.389 120.55 433.122 126.582 431.274zM366.427 245.125L366.873 245.141C369.7 253.757 346.11 272.853 339.835 277.634L331.225 283.875 330.739 283.828C332.354 281.696 333.418 279.286 334.777 276.997 340.676 267.062 357.364 255.132 366.427 245.125z" transform="scale(2.92969)" class="color0d3b66 svgShape"></path><defs><linearGradient id="g" x1="86.376" x2="100.548" y1="347.431" y2="349.186" gradientUnits="userSpaceOnUse"><stop offset="0" stop-color="#62a7af" class="stopColor629faf svgShape"></stop><stop offset="1" stop-color="#bcc7c8" class="stopColorbcc8c2 svgShape"></stop></linearGradient></defs><path fill="url(#g)" d="M85.121 354.219L104.837 337.792C103.793 340.054 102.007 341.875 100.307 343.655L90.1995 353.535C89.6426 353.975 88.7832 354.873 88.1507 355.111C87.8459 354.804 87.7886 354.896 87.375 354.885L86.6875 355.626L85.121 354.219Z" transform="scale(2.92969)"></path><defs><linearGradient id="h" x1="231.645" x2="221.392" y1="286.826" y2="298.322" gradientUnits="userSpaceOnUse"><stop offset="0" stop-color="#08717e" class="stopColor08497e svgShape"></stop><stop offset="1" stop-color="#3ab9c8" class="stopColor3a9fc8 svgShape"></stop></linearGradient></defs><path fill="url(#h)" d="M231.994 289.262L217.57 301.221C218.804 297.958 228.853 288.702 231.719 284.562C232.531 285.831 232.291 287.827 231.994 289.262Z" transform="scale(2.92969)"></path><path fill="#0d5c66" d="M220.488 267.186C225.806 268.546 216.392 274.965 214.63 276.501C204.772 285.096 195.287 292.99 183.266 298.346L179.587 299.532C181.646 297.338 184.729 295.697 187.136 293.826L202.561 281.033C208.815 276.95 213.317 270.878 220.488 267.186Z" transform="scale(2.92969)" class="color0d3b66 svgShape"></path></svg>