<svg xmlns="http://www.w3.org/2000/svg" enable-background="new 0 0 64 64" viewBox="0 0 64 64" id="Innovation"><path fill="#ffffff" d="M45.494,22.25c0-7.456-6.044-13.5-13.5-13.5c-7.456,0-13.5,6.044-13.5,13.5c0,4.369,2.075,8.253,5.293,10.72     h-0.008c2.273,1.937,3.715,4.821,3.715,8.041v3.739h9v-3.739c0-3.221,1.442-6.104,3.715-8.041l-0.008-0.001     C43.419,30.502,45.494,26.618,45.494,22.25z" class="colorf4f8f8 svgShape"></path><path fill="#f6ca59" d="M25,34.218c1.549,1.837,2.494,4.201,2.494,6.793v3.739h9v-3.739c0-3.221,1.442-6.104,3.715-8.041     l-0.008-0.001c3.218-2.467,5.292-6.351,5.292-10.719c0-2.45-0.663-4.741-1.804-6.722L25,34.218z" class="colordbe7f6 svgShape"></path><polygon fill="#ffffff" points="31.994 57.75 27.494 50.893 36.494 50.893" class="colorf4f8f8 svgShape"></polygon><polyline fill="#f6ca59" points="36.494 47.75 36.494 50.75 27.494 50.75 27.494 47.75" class="colordbe7f6 svgShape"></polyline><polygon fill="#ffffff" points="31.994 57.75 27.494 50.893 36.494 50.893" class="colorf4f8f8 svgShape"></polygon><path fill="#72effe" d="M36.994,47.75h-10c-0.828,0-1.5-0.672-1.5-1.5l0,0c0-0.828,0.672-1.5,1.5-1.5h10c0.828,0,1.5,0.672,1.5,1.5     l0,0C38.494,47.078,37.822,47.75,36.994,47.75z" class="colorb4cbea svgShape"></path><polygon fill="#79cbd5" points="30.025 54.75 31.994 57.75 33.962 54.75" class="color79a1d5 svgShape"></polygon><polyline fill="#72effe" points="33.494 47.75 33.494 50.75 30.494 50.75 30.494 47.75" class="colorb4cbea svgShape"></polyline><polyline fill="#79cbd5" points="36.494 47.75 36.494 50.75 33.494 50.75 33.494 47.75" class="color79a1d5 svgShape"></polyline><path fill="#43b1be" d="M36.494,41.511c-0.276,0-0.5-0.224-0.5-0.5c0-3.219,1.395-6.264,3.829-8.369     c0.021-0.025,0.046-0.049,0.073-0.07c3.24-2.483,5.098-6.246,5.098-10.322c0-7.168-5.832-13-13-13s-13,5.832-13,13     c0,4.077,1.857,7.84,5.098,10.323c0.027,0.021,0.053,0.045,0.074,0.071c2.434,2.105,3.828,5.149,3.828,8.367     c0,0.276-0.224,0.5-0.5,0.5s-0.5-0.224-0.5-0.5c0-2.952-1.29-5.744-3.54-7.66c-0.013-0.011-0.024-0.022-0.036-0.034     c-3.448-2.675-5.424-6.704-5.424-11.067c0-7.72,6.28-14,14-14s14,6.28,14,14c0,4.363-1.977,8.392-5.425,11.066     c-0.012,0.012-0.023,0.023-0.036,0.035c-2.249,1.916-3.539,4.708-3.539,7.66C36.994,41.288,36.771,41.511,36.494,41.511z" class="color437abe svgShape"></path><path fill="#43b1be" d="M27.494 45.25c-.276 0-.5-.224-.5-.5v-4c0-.276.224-.5.5-.5s.5.224.5.5v4C27.994 45.026 27.771 45.25 27.494 45.25zM36.494 51.25h-9c-.276 0-.5-.224-.5-.5v-3c0-.276.224-.5.5-.5s.5.224.5.5v2.5h8v-2.5c0-.276.224-.5.5-.5s.5.224.5.5v3C36.994 51.026 36.771 51.25 36.494 51.25zM36.494 45.25c-.276 0-.5-.224-.5-.5v-4c0-.276.224-.5.5-.5s.5.224.5.5v4C36.994 45.026 36.771 45.25 36.494 45.25z" class="color437abe svgShape"></path><path fill="#43b1be" d="M33.494,51.25h-3c-0.276,0-0.5-0.224-0.5-0.5v-3c0-0.276,0.224-0.5,0.5-0.5s0.5,0.224,0.5,0.5v2.5h2v-2.5     c0-0.276,0.224-0.5,0.5-0.5s0.5,0.224,0.5,0.5v3C33.994,51.026,33.771,51.25,33.494,51.25z" class="color437abe svgShape"></path><path fill="#43b1be" d="M31.994,58.25c-0.169,0-0.325-0.085-0.418-0.226l-4.5-6.857c-0.101-0.154-0.109-0.35-0.022-0.512     c0.088-0.162,0.257-0.263,0.44-0.263h9c0.184,0,0.353,0.101,0.44,0.263c0.087,0.162,0.078,0.358-0.022,0.512l-4.5,6.857     C32.319,58.165,32.163,58.25,31.994,58.25z M28.42,51.393l3.574,5.446l3.574-5.446H28.42z" class="color437abe svgShape"></path><path fill="#43b1be" d="M33.963 55.25h-3.938c-.276 0-.5-.224-.5-.5s.224-.5.5-.5h3.938c.276 0 .5.224.5.5S34.239 55.25 33.963 55.25zM36.994 48.25h-10c-1.103 0-2-.897-2-2s.897-2 2-2h10c1.103 0 2 .897 2 2S38.097 48.25 36.994 48.25zM26.994 45.25c-.552 0-1 .449-1 1s.448 1 1 1h10c.552 0 1-.449 1-1s-.448-1-1-1H26.994zM31.983 26.25c-.004 0-.008 0-.013 0-.878-.003-1.521-.335-2.088-.627-.126-.065-.251-.129-.378-.189-.118.06-.229.118-.335.173-.688.359-1.23.644-2.197.644-.276 0-.5-.224-.5-.5s.224-.5.5-.5c.722 0 1.103-.199 1.734-.53.173-.091.359-.188.568-.29.13-.063.279-.067.411-.012.223.093.438.203.654.315.513.264.996.514 1.634.516.003 0 .006 0 .009 0 .629 0 1.109-.249 1.618-.513.218-.113.435-.225.658-.318.123-.052.262-.052.385 0 .196.082.398.178.605.276.573.273 1.167.555 1.723.555.276 0 .5.224.5.5s-.224.5-.5.5c-.781 0-1.51-.346-2.152-.652-.124-.059-.246-.117-.366-.171-.132.063-.261.13-.392.198C33.497 25.918 32.856 26.25 31.983 26.25z" class="color437abe svgShape"></path><path fill="#43b1be" d="M33.494,45.25h-3c-0.276,0-0.5-0.224-0.5-0.5v-9.377c0-3.382-1.223-6.647-3.441-9.194     c-0.182-0.208-0.16-0.524,0.049-0.706c0.207-0.182,0.523-0.161,0.705,0.048c2.378,2.729,3.688,6.228,3.688,9.851v8.877h2v-8.915     c0-3.626,1.311-7.125,3.689-9.854c0.181-0.209,0.497-0.23,0.705-0.048c0.209,0.182,0.23,0.498,0.049,0.706     c-2.221,2.546-3.443,5.813-3.443,9.197v9.415C33.994,45.026,33.771,45.25,33.494,45.25z" class="color437abe svgShape"></path><path fill="#43b1be" d="M42.964,37.808c-4.151,0-10.609-3.597-16.627-9.614c-4.278-4.278-7.526-9.013-8.911-12.989     c-1.078-3.098-0.932-5.453,0.426-6.81c1.727-1.727,5.045-1.493,9.353,0.661c0.247,0.124,0.347,0.424,0.224,0.671     c-0.124,0.248-0.422,0.346-0.671,0.224c-3.833-1.917-6.821-2.227-8.198-0.849c-1.052,1.052-1.118,3.102-0.188,5.773     c1.336,3.839,4.498,8.436,8.673,12.611c7.283,7.283,15.702,11.169,18.385,8.485c1.449-1.45,1.004-4.761-1.19-8.858     c-0.131-0.244-0.039-0.547,0.204-0.677c0.242-0.129,0.546-0.04,0.677,0.205c2.451,4.574,2.821,8.233,1.017,10.038     C45.371,37.444,44.283,37.808,42.964,37.808z" class="color437abe svgShape"></path><path fill="#43b1be" d="M21.023,37.815c-1.338,0-2.414-0.378-3.172-1.136c-1.805-1.805-1.435-5.463,1.017-10.038     c0.131-0.244,0.435-0.334,0.677-0.205c0.243,0.13,0.335,0.434,0.204,0.677c-2.195,4.097-2.64,7.408-1.19,8.858     c1.269,1.27,3.979,1.093,7.434-0.483c3.499-1.597,7.389-4.439,10.951-8.002c3.454-3.454,6.248-7.24,7.866-10.659     c1.704-3.599,1.93-6.415,0.619-7.726c-1.387-1.389-4.54-1.028-8.426,0.964c-0.246,0.126-0.547,0.029-0.674-0.217     c-0.126-0.246-0.028-0.547,0.217-0.673c4.355-2.233,7.853-2.518,9.59-0.781c1.651,1.651,1.502,4.798-0.422,8.86     c-1.667,3.521-4.53,7.405-8.063,10.938c-3.645,3.646-7.638,6.56-11.242,8.205C24.342,37.342,22.52,37.814,21.023,37.815z" class="color437abe svgShape"></path><path fill="#43b1be" d="M31.994,30.537c-11.215,0-20-3.514-20-8c0-2.496,2.744-4.789,7.529-6.291     c0.264-0.08,0.544,0.064,0.626,0.327c0.083,0.264-0.063,0.544-0.327,0.627c-4.275,1.342-6.828,3.337-6.828,5.337     c0,3.794,8.701,7,19,7s19-3.206,19-7c0-2-2.554-3.995-6.831-5.337c-0.264-0.083-0.41-0.363-0.328-0.627     c0.083-0.263,0.364-0.41,0.627-0.327c4.787,1.502,7.532,3.795,7.532,6.292C51.994,27.023,43.209,30.537,31.994,30.537z" class="color437abe svgShape"></path><circle cx="31.994" cy="6.75" r=".5" fill="#45adba" class="color4574ba svgShape"></circle><circle cx="47.494" cy="22.25" r=".5" fill="#45adba" class="color4574ba svgShape"></circle><circle cx="16.494" cy="22.25" r=".5" fill="#45adba" class="color4574ba svgShape"></circle><circle cx="42.954" cy="11.29" r=".5" fill="#45adba" transform="rotate(-45.001 42.954 11.29)" class="color4574ba svgShape"></circle><circle cx="21.034" cy="33.21" r=".5" fill="#45adba" transform="rotate(-45.001 21.033 33.21)" class="color4574ba svgShape"></circle><circle cx="42.954" cy="33.21" r=".5" fill="#45adba" transform="rotate(-45.001 42.954 33.21)" class="color4574ba svgShape"></circle><circle cx="21.034" cy="11.29" r=".5" fill="#45adba" transform="rotate(-45.001 21.034 11.29)" class="color4574ba svgShape"></circle><circle cx="26.062" cy="7.93" r=".5" fill="#45adba" transform="rotate(-22.5 26.061 7.93)" class="color4574ba svgShape"></circle><circle cx="37.925" cy="7.93" r=".5" fill="#45adba" transform="rotate(-67.5 37.925 7.93)" class="color4574ba svgShape"></circle><circle cx="28.97" cy="7.048" r=".5" fill="#45adba" transform="rotate(-11.246 28.969 7.045)" class="color4574ba svgShape"></circle><circle cx="47.196" cy="19.226" r=".5" fill="#45adba" transform="rotate(-11.246 47.196 19.222)" class="color4574ba svgShape"></circle><circle cx="16.792" cy="25.274" r=".5" fill="#45adba" transform="rotate(-11.246 16.793 25.271)" class="color4574ba svgShape"></circle><circle cx="40.605" cy="9.362" r=".5" fill="#45adba" transform="rotate(-56.25 40.604 9.362)" class="color4574ba svgShape"></circle><circle cx="23.382" cy="35.138" r=".5" fill="#45adba" transform="rotate(-56.25 23.382 35.136)" class="color4574ba svgShape"></circle><circle cx="44.881" cy="30.861" r=".5" fill="#45adba" transform="rotate(-56.25 44.88 30.86)" class="color4574ba svgShape"></circle><circle cx="19.106" cy="13.639" r=".5" fill="#45adba" transform="rotate(-56.25 19.105 13.638)" class="color4574ba svgShape"></circle><circle cx="23.382" cy="9.362" r=".5" fill="#45adba" transform="rotate(-33.75 23.381 9.362)" class="color4574ba svgShape"></circle><circle cx="40.605" cy="35.138" r=".5" fill="#45adba" transform="rotate(-33.75 40.603 35.136)" class="color4574ba svgShape"></circle><circle cx="44.881" cy="13.639" r=".5" fill="#45adba" transform="rotate(-33.75 44.879 13.638)" class="color4574ba svgShape"></circle><circle cx="19.106" cy="30.861" r=".5" fill="#45adba" transform="rotate(-33.75 19.105 30.86)" class="color4574ba svgShape"></circle><circle cx="35.018" cy="7.048" r=".5" fill="#45adba" transform="rotate(-78.749 35.018 7.047)" class="color4574ba svgShape"></circle><circle cx="47.196" cy="25.274" r=".5" fill="#45adba" transform="rotate(-78.749 47.196 25.273)" class="color4574ba svgShape"></circle><circle cx="16.792" cy="19.226" r=".5" fill="#45adba" transform="rotate(-78.749 16.792 19.226)" class="color4574ba svgShape"></circle><circle cx="19.006" cy="8.309" r="1.5" fill="#72effe" class="colorb4cbea svgShape"></circle><path fill="#43b1be" d="M19.006,10.309c-1.103,0-2-0.897-2-2s0.897-2,2-2s2,0.897,2,2S20.108,10.309,19.006,10.309z M19.006,7.309     c-0.552,0-1,0.449-1,1s0.448,1,1,1s1-0.449,1-1S19.558,7.309,19.006,7.309z" class="color437abe svgShape"></path><circle cx="50.006" cy="25.309" r="1.5" fill="#72effe" class="colorb4cbea svgShape"></circle><path fill="#43b1be" d="M50.006,27.309c-1.103,0-2-0.897-2-2s0.897-2,2-2s2,0.897,2,2S51.108,27.309,50.006,27.309z M50.006,24.309     c-0.552,0-1,0.449-1,1s0.448,1,1,1s1-0.449,1-1S50.558,24.309,50.006,24.309z" class="color437abe svgShape"></path><circle cx="19.006" cy="36.309" r="1.5" fill="#72effe" class="colorb4cbea svgShape"></circle><path fill="#43b1be" d="M19.006,38.309c-1.103,0-2-0.897-2-2s0.897-2,2-2s2,0.897,2,2S20.108,38.309,19.006,38.309z M19.006,35.309     c-0.552,0-1,0.449-1,1s0.448,1,1,1s1-0.449,1-1S19.558,35.309,19.006,35.309z" class="color437abe svgShape"></path></svg>