<svg xmlns="http://www.w3.org/2000/svg" viewBox="0 0 512 512" id="Startup"><path fill="#32a2af" d="m218.2 373.1-38.5 27.5s-24.2-11-40.7-27.5-27.5-40.7-27.5-40.7l27.5-38.5 79.2 79.2z" class="color3279af svgShape"></path><path fill="#dba929" d="m140.3 280.6-94.4-53.5c73.3-73.3 180.2-32.3 180.2-32.3l-85.8 85.8zm91.1 91.1 53.5 94.4c73.3-73.3 32.3-180.2 32.3-180.2l-85.8 85.8z" class="colordb3529 svgShape"></path><path fill="#277d87" d="M123.1 316.1c4 12.9 12.1 28.7 28.1 44.7 11.9 11.9 24.8 20.6 38.5 26 2.1.8 4.2 1.5 6.3 2.2l22.2-15.9-79.2-79.2-15.9 22.2z" class="color275e87 svgShape"></path><path fill="#277d87" d="m127.1 358.9 29-33.7-7.6-6.5-27.2 31.6c1.7 2.7 3.6 5.6 5.8 8.6zm34.6 31.8 31.6-27.2-6.5-7.6-33.7 29c3 2.2 5.9 4.1 8.6 5.8zm-26.2-21.3c1.1 1.2 2.3 2.5 3.4 3.6s2.4 2.3 3.6 3.4l29.8-29.8-7.1-7.1-29.7 29.9z" class="color275e87 svgShape"></path><path fill="#b48a1e" d="m140.3 280.6 85.8-85.8s-19.5-7.5-47.6-10.3c-35.8 46.9-52 78.7-55.6 86.2l17.4 9.9zm100.9 108.6c7.5-3.6 39.4-19.8 86.2-55.7-2.8-28.1-10.3-47.6-10.3-47.6l-85.8 85.8 9.9 17.5z" class="colorb4271e svgShape"></path><path fill="#72effe" d="M408.9 235.1C306.6 337.4 231.4 371.7 231.4 371.7s-31.7 9.2-66-25.1-25.1-66-25.1-66 34.3-75.3 136.6-177.6S474.3-7.2 496.7 15.3s14.5 117.5-87.8 219.8z" class="color9cd3fc svgShape"></path><path fill="#ffffff" d="M376 202.2C273.7 304.5 208.7 349.1 208.7 349.1s-26.1 14.8-43.3-2.4c-17.2-17.2-2.4-43.3-2.4-43.3s44.5-65.1 146.8-167.4S485.5 4 496.7 15.3C508 26.5 478.4 99.9 376 202.2z" class="colorcde9fe svgShape"></path><path fill="#dba929" d="M477.8 145.7c-17.2-6.3-45.5-19.2-68.9-42.6-23.1-23.1-35-52-40.5-70 63-34.3 112.9-33.2 128.3-17.8 15.7 15.6 16.6 66.4-18.9 130.4z" class="colordb3529 svgShape"></path><path fill="#e2bb56" d="M384 69.7c6.3 11.3 14.5 23 24.9 33.4 10.5 10.5 21.9 18.9 33 25.5C491 65.8 505 23.6 496.7 15.3 488.4 7 446.4 20.9 384 69.7z" class="colore25d56 svgShape"></path><circle cx="331" cy="181" r="64.4" fill="#32a2af" class="color3279af svgShape"></circle><circle cx="331" cy="181" r="46.7" fill="#277d87" class="color275e87 svgShape"></circle><path fill="#dba929" d="M138.9 439.1c18.2-18.2 18.2-47.8 0-66s-47.8-18.2-66 0S-10 485.5 8.2 503.8s112.5-46.5 130.7-64.7z" class="colordb3529 svgShape"></path><path fill="#f6ca59" d="M138.9 373.1c-7.3-7.3-19.1-7.3-26.4 0-5.7 5.7-21.2 26-35.6 49.6-6.9 11.2-11.9 20.4-15.5 27.9 7.5-3.6 16.7-8.6 27.9-15.5 23.5-14.4 43.9-30 49.6-35.6 7.3-7.3 7.3-19.2 0-26.4z" class="colorf6c9aa svgShape"></path></svg>